<svg width="181" height="175" viewBox="0 0 181 175" fill="none" xmlns="http://www.w3.org/2000/svg">
<ellipse cx="90.1616" cy="87.5" rx="90.1616" ry="87.5" fill="white"/>
<g clip-path="url(#clip0_87_14)">
<path d="M146.515 81.5986C146.685 81.7984 146.811 82.0318 146.885 82.2835C146.96 82.5352 146.98 82.7997 146.946 83.0598C146.911 83.32 146.822 83.5699 146.685 83.7936C146.547 84.0172 146.364 84.2095 146.148 84.358L136.993 90.636L132.962 93.3203C132.733 93.4728 132.455 93.5347 132.183 93.494C131.911 93.4534 131.664 93.313 131.489 93.1002C131.388 92.9762 131.314 92.8316 131.274 92.6765C131.234 92.5213 131.228 92.3593 131.257 92.2016C131.285 92.044 131.348 91.8944 131.44 91.7632C131.532 91.6321 131.652 91.5225 131.791 91.442L135.695 89.1775L142.509 82.6954L138.129 77.9958L141.374 75.565L146.515 81.5986Z" fill="#A0616A"/>
<path d="M124.987 140.711H122.748L121.418 122.237L127.096 122.074L124.987 140.711Z" fill="#A0616A"/>
<path d="M125.149 146.707C124.552 146.979 124.052 144.774 123.548 145.268C122.14 146.651 119.982 146.952 118.102 146.348L118.76 146.341C118.647 146.304 118.542 146.245 118.452 146.167C118.362 146.089 118.289 145.994 118.237 145.886C118.185 145.779 118.155 145.663 118.15 145.544C118.144 145.425 118.163 145.306 118.205 145.195C118.255 145.061 118.337 144.942 118.443 144.847C118.55 144.752 118.678 144.685 118.816 144.65L120.314 144.276L122.667 140.144L125.068 139.981C125.604 140.663 125.977 141.457 126.161 142.304C126.345 143.151 126.334 144.028 126.129 144.87C125.912 145.759 125.575 146.513 125.149 146.707Z" fill="#2F2E41"/>
<path d="M139.897 140.711H137.658L136.328 122.237L142.169 121.102L139.897 140.711Z" fill="#A0616A"/>
<path d="M140.06 146.707C139.463 146.979 138.962 144.774 138.459 145.268C137.05 146.651 134.893 146.952 133.012 146.348L133.67 146.341C133.557 146.304 133.452 146.245 133.362 146.167C133.272 146.089 133.199 145.994 133.147 145.886C133.095 145.779 133.065 145.663 133.06 145.544C133.055 145.425 133.073 145.306 133.115 145.195C133.165 145.061 133.247 144.942 133.353 144.847C133.46 144.752 133.588 144.685 133.726 144.65L135.224 144.276L137.577 140.144L140.141 139.819L140.206 139.925C140.701 140.723 141.021 141.617 141.143 142.548C141.265 143.479 141.187 144.426 140.914 145.324C140.701 146.007 140.411 146.547 140.06 146.707Z" fill="#2F2E41"/>
<path d="M142.437 75.9829C140.377 76.2691 138.952 77.3955 138.371 79.6427L134.586 72.6618C134.361 72.2182 134.304 71.7086 134.425 71.2265C134.546 70.7443 134.837 70.3219 135.245 70.0367C135.678 69.734 136.21 69.6079 136.732 69.6843C137.255 69.7607 137.728 70.0338 138.056 70.4477L142.437 75.9829Z" fill="#FA144B"/>
<path d="M146.403 120.292C137.199 124.359 127.781 124.86 118.173 122.237C121.681 108.645 125.824 96.3558 125.798 86.2606L135.208 85.4503L136.657 87.7446C140.095 93.188 142.468 99.2332 143.65 105.56L146.403 120.292Z" fill="#2F2E41"/>
<path d="M130.99 65.3556C133.678 65.3556 135.857 63.1789 135.857 60.4939C135.857 57.8089 133.678 55.6323 130.99 55.6323C128.302 55.6323 126.123 57.8089 126.123 60.4939C126.123 63.1789 128.302 65.3556 130.99 65.3556Z" fill="#A0616A"/>
<path d="M136.344 69.0827L130.341 69.4069L129.368 64.0591L134.235 63.2489L136.344 69.0827Z" fill="#A0616A"/>
<path d="M135.695 86.2606L129.119 86.4456L125.798 86.9088C124.169 81.5314 122.796 76.1663 126.123 71.6757L130.017 67.7864L135.857 67.6244L135.935 67.6685C136.862 68.1994 137.581 69.0299 137.973 70.0234C138.365 71.017 138.406 72.1141 138.09 73.1341C136.64 77.8387 135.709 82.2813 135.695 86.2606Z" fill="#FA144B"/>
<path d="M125.636 101.332L125.228 106.9C125.206 107.199 125.077 107.479 124.865 107.69C124.653 107.901 124.371 108.028 124.072 108.048C123.9 108.059 123.727 108.034 123.565 107.976C123.403 107.917 123.255 107.825 123.13 107.705C123.006 107.586 122.908 107.442 122.842 107.283C122.776 107.124 122.744 106.953 122.748 106.78L122.878 101.332L126.934 85.9364L127.096 76.5373L131.639 76.3752L131.315 87.2329L125.636 101.332Z" fill="#A0616A"/>
<path d="M132.126 77.1856C130.2 76.4033 128.401 76.6653 126.772 78.3199L126.995 70.3841C127.023 69.8878 127.229 69.4182 127.576 69.0615C127.922 68.7047 128.386 68.4847 128.882 68.4416C129.408 68.3959 129.932 68.5529 130.346 68.8804C130.76 69.208 131.033 69.6813 131.109 70.2034L132.126 77.1856Z" fill="#FA144B"/>
<path d="M141.293 82.1282H126.366C129.848 72.9184 130.971 64.3506 126.366 57.0098C126.445 54.805 129.276 52.8936 131.475 53.1048C134.072 53.3542 137.561 55.2602 138.048 57.8201L141.293 82.1282Z" fill="#2F2E41"/>
<path d="M93.7231 52.7H93.0423V34.0709C93.0423 32.655 92.7631 31.253 92.2206 29.9448C91.6781 28.6367 90.883 27.4481 89.8806 26.4469C88.8783 25.4457 87.6883 24.6515 86.3786 24.1097C85.069 23.5678 83.6653 23.2889 82.2477 23.2889H42.7338C41.3162 23.2889 39.9125 23.5678 38.6029 24.1097C37.2932 24.6515 36.1032 25.4457 35.1009 26.4469C34.0985 27.4481 33.3034 28.6367 32.7609 29.9448C32.2184 31.253 31.9392 32.655 31.9392 34.0709V136.271C31.9392 137.687 32.2184 139.089 32.7609 140.397C33.3034 141.705 34.0985 142.894 35.1009 143.895C36.1032 144.896 37.2932 145.691 38.6029 146.232C39.9125 146.774 41.3162 147.053 42.7338 147.053H82.2477C83.6653 147.053 85.069 146.774 86.3786 146.232C87.6883 145.691 88.8783 144.896 89.8806 143.895C90.883 142.894 91.6781 141.705 92.2206 140.397C92.7631 139.089 93.0423 137.687 93.0423 136.271V65.9604H93.7231V52.7Z" fill="#3F3D56"/>
<path d="M82.6833 26.094H77.5254C77.7626 26.6749 77.8531 27.3051 77.789 27.9291C77.7249 28.5531 77.5082 29.1519 77.1579 29.6725C76.8076 30.1932 76.3344 30.6198 75.7802 30.9148C75.2259 31.2098 74.6075 31.3641 73.9794 31.3642H51.3424C50.7143 31.3641 50.0959 31.2098 49.5417 30.9148C48.9874 30.6198 48.5143 30.1932 48.1639 29.6725C47.8136 29.1519 47.5969 28.5531 47.5328 27.9291C47.4687 27.3051 47.5592 26.6749 47.7964 26.094H42.979C41.9204 26.094 40.8721 26.3023 39.8941 26.7069C38.916 27.1115 38.0274 27.7046 37.2788 28.4523C36.5303 29.2 35.9365 30.0876 35.5314 31.0645C35.1263 32.0414 34.9177 33.0885 34.9177 34.1458V136.196C34.9177 137.254 35.1262 138.301 35.5314 139.278C35.9365 140.254 36.5303 141.142 37.2788 141.89C38.0274 142.637 38.916 143.231 39.8941 143.635C40.8721 144.04 41.9204 144.248 42.979 144.248H82.6833C83.7419 144.248 84.7901 144.04 85.7682 143.635C86.7462 143.231 87.6349 142.637 88.3834 141.89C89.132 141.142 89.7257 140.254 90.1309 139.278C90.536 138.301 90.7445 137.254 90.7445 136.196V34.1458C90.7445 32.0104 89.8952 29.9623 88.3834 28.4523C86.8716 26.9423 84.8212 26.094 82.6833 26.094Z" fill="white"/>
<path d="M83.7725 42.035H41.8897V77.9172H83.7725V42.035Z" fill="#E6E6E6"/>
<path d="M54.3184 85.3997C56.0109 85.3997 57.3829 84.0293 57.3829 82.3387C57.3829 80.6481 56.0109 79.2776 54.3184 79.2776C52.6258 79.2776 51.2538 80.6481 51.2538 82.3387C51.2538 84.0293 52.6258 85.3997 54.3184 85.3997Z" fill="#FA144B"/>
<path d="M55.8507 82.0837H54.5738V80.8082H54.063V82.0837H52.7861V82.5938H54.063V83.8693H54.5738V82.5938H55.8507V82.0837Z" fill="white"/>
<path d="M70.4926 85.3997C72.1851 85.3997 73.5572 84.0293 73.5572 82.3387C73.5572 80.6481 72.1851 79.2776 70.4926 79.2776C68.8001 79.2776 67.428 80.6481 67.428 82.3387C67.428 84.0293 68.8001 85.3997 70.4926 85.3997Z" fill="#FA144B"/>
<path d="M72.0249 82.5938V82.0836H68.9603V82.5938H72.0249Z" fill="white"/>
<path d="M64.3932 46.5101H61.0834C60.967 46.5101 60.8554 46.5562 60.7731 46.6384C60.6908 46.7206 60.6446 46.8321 60.6446 46.9484V48.3995C60.6446 48.5157 60.6908 48.6272 60.7731 48.7094C60.8554 48.7916 60.967 48.8378 61.0834 48.8378H61.6319V51.012H63.8447V48.8378H64.3932C64.5096 48.8378 64.6212 48.7916 64.7035 48.7094C64.7858 48.6272 64.832 48.5157 64.832 48.3995V46.9484C64.832 46.8321 64.7858 46.7206 64.7035 46.6384C64.6212 46.5563 64.5096 46.5101 64.3932 46.5101Z" fill="#FA144B"/>
<path d="M67.7083 59.7904C65.6813 56.8277 64.645 53.3003 64.748 49.7134C64.7498 49.6306 64.7229 49.5497 64.6719 49.4845C64.6208 49.4193 64.5487 49.3738 64.4679 49.3556V48.7286H60.9723V49.3469H60.9241C60.877 49.347 60.8304 49.3563 60.7869 49.3744C60.7434 49.3924 60.7039 49.4189 60.6706 49.4522C60.6374 49.4855 60.611 49.525 60.593 49.5685C60.5751 49.612 60.5658 49.6586 60.5659 49.7057C60.5659 49.7144 60.5662 49.7231 60.5669 49.7317C60.8423 53.5661 59.9124 57.0047 57.7771 60.0475C57.6543 60.2224 57.5915 60.4323 57.5982 60.6459L57.9805 72.4554C57.9896 72.7189 58.1003 72.9685 58.2894 73.1524C58.4785 73.3362 58.7313 73.4401 58.9952 73.4421H66.9017C67.1686 73.44 67.4241 73.3338 67.6137 73.1462C67.8034 72.9587 67.9122 72.7046 67.9171 72.438L68.0644 60.9719C68.0687 60.551 67.9445 60.1389 67.7083 59.7904Z" fill="#3F3D56"/>
<path opacity="0.2" d="M63.7032 46.9829C63.7032 47.2337 63.6035 47.4742 63.4259 47.6516C63.2484 47.8289 63.0076 47.9285 62.7565 47.9285C62.5054 47.9285 62.2646 47.8289 62.087 47.6516C61.9095 47.4742 61.8098 47.2337 61.8098 46.9829" fill="black"/>
<path d="M66.4567 63.7132H65.4993C65.4079 63.1207 65.1072 62.5805 64.6517 62.1903C64.1962 61.8 63.6158 61.5855 63.0157 61.5855C62.4156 61.5855 61.8353 61.8 61.3798 62.1903C60.9242 62.5805 60.6236 63.1207 60.5322 63.7132H59.5747C59.4728 63.7132 59.3722 63.7352 59.2796 63.7777C59.187 63.8202 59.1048 63.8822 59.0384 63.9594C58.9721 64.0366 58.9233 64.1272 58.8953 64.2251C58.8673 64.3229 58.8609 64.4257 58.8763 64.5262L59.9163 71.2782H65.8879L67.1511 64.549C67.1703 64.447 67.1667 64.3422 67.1406 64.2418C67.1146 64.1414 67.0667 64.048 67.0004 63.9682C66.9341 63.8884 66.851 63.8242 66.757 63.7801C66.663 63.736 66.5605 63.7132 66.4567 63.7132Z" fill="#FA144B"/>
<path d="M83.7725 92.5422H41.8897V128.424H83.7725V92.5422Z" fill="#E6E6E6"/>
<path d="M54.3184 135.907C56.0109 135.907 57.3829 134.536 57.3829 132.846C57.3829 131.155 56.0109 129.785 54.3184 129.785C52.6258 129.785 51.2538 131.155 51.2538 132.846C51.2538 134.536 52.6258 135.907 54.3184 135.907Z" fill="#FA144B"/>
<path d="M55.8507 132.591H54.5738V131.315H54.063V132.591H52.7861V133.101H54.063V134.376H54.5738V133.101H55.8507V132.591Z" fill="white"/>
<path d="M70.4926 135.907C72.1851 135.907 73.5572 134.536 73.5572 132.846C73.5572 131.155 72.1851 129.785 70.4926 129.785C68.8001 129.785 67.428 131.155 67.428 132.846C67.428 134.536 68.8001 135.907 70.4926 135.907Z" fill="#FA144B"/>
<path d="M72.0249 133.101V132.591H68.9603V133.101H72.0249Z" fill="white"/>
<path d="M71.0762 118.033L71.0994 118.033C71.8879 118.04 72.6602 117.809 73.3154 117.371C73.9706 116.932 74.4783 116.307 74.7723 115.576C75.6987 113.236 75.9156 110.676 75.396 108.214C74.8764 105.752 73.6432 103.497 71.8499 101.73C70.0567 99.9625 67.7826 98.7612 65.3109 98.2755C62.8392 97.7898 60.279 98.041 57.9492 98.9978C55.6193 99.9547 53.6228 101.575 52.2081 103.657C50.7934 105.739 50.0231 108.19 49.993 110.706C49.963 113.222 50.6746 115.692 52.0392 117.807C53.4038 119.922 55.3611 121.589 57.6674 122.601C58.3843 122.918 59.1803 123.011 59.9511 122.869C60.7219 122.726 61.4315 122.354 61.9868 121.801C63.178 120.605 64.5944 119.656 66.1545 119.01C67.7145 118.363 69.3872 118.031 71.0762 118.033Z" fill="white"/>
<path d="M64.4801 114.151C66.822 114.151 68.7205 112.255 68.7205 109.915C68.7205 107.576 66.822 105.68 64.4801 105.68C62.1382 105.68 60.2397 107.576 60.2397 109.915C60.2397 112.255 62.1382 114.151 64.4801 114.151Z" fill="#F9A825"/>
</g>
<defs>
<clipPath id="clip0_87_14">
<rect width="131.084" height="123.764" fill="white" transform="translate(31.9392 23.2889)"/>
</clipPath>
</defs>
</svg>
