<svg width="1440" height="482" viewBox="0 0 1440 482" fill="none" xmlns="http://www.w3.org/2000/svg">
<rect width="1440" height="482" fill="#383838"/>
<rect width="1440" height="482" fill="#535353"/>
<path d="M895.76 195.892V200.152H882.56V195.892H895.76Z" fill="#1AFF23"/>
<path d="M929.76 195.892V200.152H916.56V195.892H929.76Z" fill="#1AFF23"/>
<path d="M968.76 195.892V200.152H955.56V195.892H968.76Z" fill="#1AFF23"/>
<path d="M1004.76 195.892V200.152H991.56V195.892H1004.76Z" fill="#1AFF23"/>
<path d="M449.76 195.892V200.152H436.56V195.892H449.76Z" fill="url(#paint0_linear_91_174)"/>
<path d="M483.76 195.892V200.152H470.56V195.892H483.76Z" fill="url(#paint1_linear_91_174)"/>
<path d="M522.76 195.892V200.152H509.56V195.892H522.76Z" fill="url(#paint2_linear_91_174)"/>
<path d="M558.76 195.892V200.152H545.56V195.892H558.76Z" fill="url(#paint3_linear_91_174)"/>
<path d="M214.6 396.045C213.433 396.045 212.383 395.845 211.45 395.445C210.517 395.029 209.783 394.445 209.25 393.695C208.717 392.945 208.45 392.07 208.45 391.07H211.5C211.567 391.82 211.858 392.437 212.375 392.92C212.908 393.404 213.65 393.645 214.6 393.645C215.583 393.645 216.35 393.412 216.9 392.945C217.45 392.462 217.725 391.845 217.725 391.095C217.725 390.512 217.55 390.037 217.2 389.67C216.867 389.304 216.442 389.02 215.925 388.82C215.425 388.62 214.725 388.404 213.825 388.17C212.692 387.87 211.767 387.57 211.05 387.27C210.35 386.954 209.75 386.47 209.25 385.82C208.75 385.17 208.5 384.304 208.5 383.22C208.5 382.22 208.75 381.345 209.25 380.595C209.75 379.845 210.45 379.27 211.35 378.87C212.25 378.47 213.292 378.27 214.475 378.27C216.158 378.27 217.533 378.695 218.6 379.545C219.683 380.379 220.283 381.529 220.4 382.995H217.25C217.2 382.362 216.9 381.82 216.35 381.37C215.8 380.92 215.075 380.695 214.175 380.695C213.358 380.695 212.692 380.904 212.175 381.32C211.658 381.737 211.4 382.337 211.4 383.12C211.4 383.654 211.558 384.095 211.875 384.445C212.208 384.779 212.625 385.045 213.125 385.245C213.625 385.445 214.308 385.662 215.175 385.895C216.325 386.212 217.258 386.529 217.975 386.845C218.708 387.162 219.325 387.654 219.825 388.32C220.342 388.97 220.6 389.845 220.6 390.945C220.6 391.829 220.358 392.662 219.875 393.445C219.408 394.229 218.717 394.862 217.8 395.345C216.9 395.812 215.833 396.045 214.6 396.045ZM236.588 388.645C236.588 389.162 236.555 389.629 236.488 390.045H225.963C226.046 391.145 226.455 392.029 227.188 392.695C227.921 393.362 228.821 393.695 229.888 393.695C231.421 393.695 232.505 393.054 233.138 391.77H236.213C235.796 393.037 235.038 394.079 233.938 394.895C232.855 395.695 231.505 396.095 229.888 396.095C228.571 396.095 227.388 395.804 226.338 395.22C225.305 394.62 224.488 393.787 223.888 392.72C223.305 391.637 223.013 390.387 223.013 388.97C223.013 387.554 223.296 386.312 223.863 385.245C224.446 384.162 225.255 383.329 226.288 382.745C227.338 382.162 228.538 381.87 229.888 381.87C231.188 381.87 232.346 382.154 233.363 382.72C234.38 383.287 235.171 384.087 235.738 385.12C236.305 386.137 236.588 387.312 236.588 388.645ZM233.613 387.745C233.596 386.695 233.221 385.854 232.488 385.22C231.755 384.587 230.846 384.27 229.763 384.27C228.78 384.27 227.938 384.587 227.238 385.22C226.538 385.837 226.121 386.679 225.988 387.745H233.613ZM242.243 377.37V395.87H239.393V377.37H242.243ZM258.609 388.645C258.609 389.162 258.576 389.629 258.509 390.045H247.984C248.068 391.145 248.476 392.029 249.209 392.695C249.943 393.362 250.843 393.695 251.909 393.695C253.443 393.695 254.526 393.054 255.159 391.77H258.234C257.818 393.037 257.059 394.079 255.959 394.895C254.876 395.695 253.526 396.095 251.909 396.095C250.593 396.095 249.409 395.804 248.359 395.22C247.326 394.62 246.509 393.787 245.909 392.72C245.326 391.637 245.034 390.387 245.034 388.97C245.034 387.554 245.318 386.312 245.884 385.245C246.468 384.162 247.276 383.329 248.309 382.745C249.359 382.162 250.559 381.87 251.909 381.87C253.209 381.87 254.368 382.154 255.384 382.72C256.401 383.287 257.193 384.087 257.759 385.12C258.326 386.137 258.609 387.312 258.609 388.645ZM255.634 387.745C255.618 386.695 255.243 385.854 254.509 385.22C253.776 384.587 252.868 384.27 251.784 384.27C250.801 384.27 249.959 384.587 249.259 385.22C248.559 385.837 248.143 386.679 248.009 387.745H255.634ZM260.464 388.97C260.464 387.554 260.747 386.312 261.314 385.245C261.897 384.162 262.697 383.329 263.714 382.745C264.731 382.162 265.897 381.87 267.214 381.87C268.881 381.87 270.256 382.27 271.339 383.07C272.439 383.854 273.181 384.979 273.564 386.445H270.489C270.239 385.762 269.839 385.229 269.289 384.845C268.739 384.462 268.047 384.27 267.214 384.27C266.047 384.27 265.114 384.687 264.414 385.52C263.731 386.337 263.389 387.487 263.389 388.97C263.389 390.454 263.731 391.612 264.414 392.445C265.114 393.279 266.047 393.695 267.214 393.695C268.864 393.695 269.956 392.97 270.489 391.52H273.564C273.164 392.92 272.414 394.037 271.314 394.87C270.214 395.687 268.847 396.095 267.214 396.095C265.897 396.095 264.731 395.804 263.714 395.22C262.697 394.62 261.897 393.787 261.314 392.72C260.747 391.637 260.464 390.387 260.464 388.97ZM279.729 384.42V392.045C279.729 392.562 279.846 392.937 280.079 393.17C280.329 393.387 280.746 393.495 281.329 393.495H283.079V395.87H280.829C279.546 395.87 278.563 395.57 277.879 394.97C277.196 394.37 276.854 393.395 276.854 392.045V384.42H275.229V382.095H276.854V378.67H279.729V382.095H283.079V384.42H279.729ZM297.975 384.42H295.425V395.87H292.55V384.42H290.925V382.095H292.55V381.12C292.55 379.537 292.967 378.387 293.8 377.67C294.65 376.937 295.975 376.57 297.775 376.57V378.945C296.909 378.945 296.3 379.112 295.95 379.445C295.6 379.762 295.425 380.32 295.425 381.12V382.095H297.975V384.42ZM306.476 396.095C305.176 396.095 304.001 395.804 302.951 395.22C301.901 394.62 301.076 393.787 300.476 392.72C299.876 391.637 299.576 390.387 299.576 388.97C299.576 387.57 299.884 386.329 300.501 385.245C301.118 384.162 301.959 383.329 303.026 382.745C304.093 382.162 305.284 381.87 306.601 381.87C307.918 381.87 309.109 382.162 310.176 382.745C311.243 383.329 312.084 384.162 312.701 385.245C313.318 386.329 313.626 387.57 313.626 388.97C313.626 390.37 313.309 391.612 312.676 392.695C312.043 393.779 311.176 394.62 310.076 395.22C308.993 395.804 307.793 396.095 306.476 396.095ZM306.476 393.62C307.209 393.62 307.893 393.445 308.526 393.095C309.176 392.745 309.701 392.22 310.101 391.52C310.501 390.82 310.701 389.97 310.701 388.97C310.701 387.97 310.509 387.129 310.126 386.445C309.743 385.745 309.234 385.22 308.601 384.87C307.968 384.52 307.284 384.345 306.551 384.345C305.818 384.345 305.134 384.52 304.501 384.87C303.884 385.22 303.393 385.745 303.026 386.445C302.659 387.129 302.476 387.97 302.476 388.97C302.476 390.454 302.851 391.604 303.601 392.42C304.368 393.22 305.326 393.62 306.476 393.62ZM322.418 396.095C321.118 396.095 319.943 395.804 318.893 395.22C317.843 394.62 317.018 393.787 316.418 392.72C315.818 391.637 315.518 390.387 315.518 388.97C315.518 387.57 315.827 386.329 316.443 385.245C317.06 384.162 317.902 383.329 318.968 382.745C320.035 382.162 321.227 381.87 322.543 381.87C323.86 381.87 325.052 382.162 326.118 382.745C327.185 383.329 328.027 384.162 328.643 385.245C329.26 386.329 329.568 387.57 329.568 388.97C329.568 390.37 329.252 391.612 328.618 392.695C327.985 393.779 327.118 394.62 326.018 395.22C324.935 395.804 323.735 396.095 322.418 396.095ZM322.418 393.62C323.152 393.62 323.835 393.445 324.468 393.095C325.118 392.745 325.643 392.22 326.043 391.52C326.443 390.82 326.643 389.97 326.643 388.97C326.643 387.97 326.452 387.129 326.068 386.445C325.685 385.745 325.177 385.22 324.543 384.87C323.91 384.52 323.227 384.345 322.493 384.345C321.76 384.345 321.077 384.52 320.443 384.87C319.827 385.22 319.335 385.745 318.968 386.445C318.602 387.129 318.418 387.97 318.418 388.97C318.418 390.454 318.793 391.604 319.543 392.42C320.31 393.22 321.268 393.62 322.418 393.62ZM331.436 388.92C331.436 387.537 331.719 386.312 332.286 385.245C332.869 384.179 333.652 383.354 334.636 382.77C335.636 382.17 336.744 381.87 337.961 381.87C338.861 381.87 339.744 382.07 340.611 382.47C341.494 382.854 342.194 383.37 342.711 384.02V377.37H345.586V395.87H342.711V393.795C342.244 394.462 341.594 395.012 340.761 395.445C339.944 395.879 339.002 396.095 337.936 396.095C336.736 396.095 335.636 395.795 334.636 395.195C333.652 394.579 332.869 393.729 332.286 392.645C331.719 391.545 331.436 390.304 331.436 388.92ZM342.711 388.97C342.711 388.02 342.511 387.195 342.111 386.495C341.727 385.795 341.219 385.262 340.586 384.895C339.952 384.529 339.269 384.345 338.536 384.345C337.802 384.345 337.119 384.529 336.486 384.895C335.852 385.245 335.336 385.77 334.936 386.47C334.552 387.154 334.361 387.97 334.361 388.92C334.361 389.87 334.552 390.704 334.936 391.42C335.336 392.137 335.852 392.687 336.486 393.07C337.136 393.437 337.819 393.62 338.536 393.62C339.269 393.62 339.952 393.437 340.586 393.07C341.219 392.704 341.727 392.17 342.111 391.47C342.511 390.754 342.711 389.92 342.711 388.97Z" fill="white"/>
<path d="M633.419 387.145C633.419 385.445 633.811 383.92 634.594 382.57C635.394 381.22 636.469 380.17 637.819 379.42C639.186 378.654 640.677 378.27 642.294 378.27C644.144 378.27 645.786 378.729 647.219 379.645C648.669 380.545 649.719 381.829 650.369 383.495H646.944C646.494 382.579 645.869 381.895 645.069 381.445C644.269 380.995 643.344 380.77 642.294 380.77C641.144 380.77 640.119 381.029 639.219 381.545C638.319 382.062 637.611 382.804 637.094 383.77C636.594 384.737 636.344 385.862 636.344 387.145C636.344 388.429 636.594 389.554 637.094 390.52C637.611 391.487 638.319 392.237 639.219 392.77C640.119 393.287 641.144 393.545 642.294 393.545C643.344 393.545 644.269 393.32 645.069 392.87C645.869 392.42 646.494 391.737 646.944 390.82H650.369C649.719 392.487 648.669 393.77 647.219 394.67C645.786 395.57 644.144 396.02 642.294 396.02C640.661 396.02 639.169 395.645 637.819 394.895C636.469 394.129 635.394 393.07 634.594 391.72C633.811 390.37 633.419 388.845 633.419 387.145ZM659.68 396.095C658.38 396.095 657.205 395.804 656.155 395.22C655.105 394.62 654.28 393.787 653.68 392.72C653.08 391.637 652.78 390.387 652.78 388.97C652.78 387.57 653.088 386.329 653.705 385.245C654.322 384.162 655.163 383.329 656.23 382.745C657.297 382.162 658.488 381.87 659.805 381.87C661.122 381.87 662.313 382.162 663.38 382.745C664.447 383.329 665.288 384.162 665.905 385.245C666.522 386.329 666.83 387.57 666.83 388.97C666.83 390.37 666.513 391.612 665.88 392.695C665.247 393.779 664.38 394.62 663.28 395.22C662.197 395.804 660.997 396.095 659.68 396.095ZM659.68 393.62C660.413 393.62 661.097 393.445 661.73 393.095C662.38 392.745 662.905 392.22 663.305 391.52C663.705 390.82 663.905 389.97 663.905 388.97C663.905 387.97 663.713 387.129 663.33 386.445C662.947 385.745 662.438 385.22 661.805 384.87C661.172 384.52 660.488 384.345 659.755 384.345C659.022 384.345 658.338 384.52 657.705 384.87C657.088 385.22 656.597 385.745 656.23 386.445C655.863 387.129 655.68 387.97 655.68 388.97C655.68 390.454 656.055 391.604 656.805 392.42C657.572 393.22 658.53 393.62 659.68 393.62ZM676.597 381.87C677.681 381.87 678.647 382.095 679.497 382.545C680.364 382.995 681.039 383.662 681.522 384.545C682.006 385.429 682.247 386.495 682.247 387.745V395.87H679.422V388.17C679.422 386.937 679.114 385.995 678.497 385.345C677.881 384.679 677.039 384.345 675.972 384.345C674.906 384.345 674.056 384.679 673.422 385.345C672.806 385.995 672.497 386.937 672.497 388.17V395.87H669.647V382.095H672.497V383.67C672.964 383.104 673.556 382.662 674.272 382.345C675.006 382.029 675.781 381.87 676.597 381.87ZM691.658 384.42H689.108V395.87H686.233V384.42H684.608V382.095H686.233V381.12C686.233 379.537 686.649 378.387 687.483 377.67C688.333 376.937 689.658 376.57 691.458 376.57V378.945C690.591 378.945 689.983 379.112 689.633 379.445C689.283 379.762 689.108 380.32 689.108 381.12V382.095H691.658V384.42ZM695.634 380.27C695.117 380.27 694.684 380.095 694.334 379.745C693.984 379.395 693.809 378.962 693.809 378.445C693.809 377.929 693.984 377.495 694.334 377.145C694.684 376.795 695.117 376.62 695.634 376.62C696.134 376.62 696.559 376.795 696.909 377.145C697.259 377.495 697.434 377.929 697.434 378.445C697.434 378.962 697.259 379.395 696.909 379.745C696.559 380.095 696.134 380.27 695.634 380.27ZM697.034 382.095V395.87H694.184V382.095H697.034ZM703.625 384.095C704.042 383.395 704.592 382.854 705.275 382.47C705.975 382.07 706.8 381.87 707.75 381.87V384.82H707.025C705.909 384.82 705.059 385.104 704.475 385.67C703.909 386.237 703.625 387.22 703.625 388.62V395.87H700.775V382.095H703.625V384.095ZM727.045 381.87C728.128 381.87 729.095 382.095 729.945 382.545C730.812 382.995 731.487 383.662 731.97 384.545C732.47 385.429 732.72 386.495 732.72 387.745V395.87H729.895V388.17C729.895 386.937 729.587 385.995 728.97 385.345C728.353 384.679 727.512 384.345 726.445 384.345C725.378 384.345 724.528 384.679 723.895 385.345C723.278 385.995 722.97 386.937 722.97 388.17V395.87H720.145V388.17C720.145 386.937 719.837 385.995 719.22 385.345C718.603 384.679 717.762 384.345 716.695 384.345C715.628 384.345 714.778 384.679 714.145 385.345C713.528 385.995 713.22 386.937 713.22 388.17V395.87H710.37V382.095H713.22V383.67C713.687 383.104 714.278 382.662 714.995 382.345C715.712 382.029 716.478 381.87 717.295 381.87C718.395 381.87 719.378 382.104 720.245 382.57C721.112 383.037 721.778 383.712 722.245 384.595C722.662 383.762 723.312 383.104 724.195 382.62C725.078 382.12 726.028 381.87 727.045 381.87ZM750.766 396.045C749.149 396.045 747.657 395.67 746.291 394.92C744.941 394.154 743.866 393.095 743.066 391.745C742.282 390.379 741.891 388.845 741.891 387.145C741.891 385.445 742.282 383.92 743.066 382.57C743.866 381.22 744.941 380.17 746.291 379.42C747.657 378.654 749.149 378.27 750.766 378.27C752.399 378.27 753.891 378.654 755.241 379.42C756.607 380.17 757.682 381.22 758.466 382.57C759.249 383.92 759.641 385.445 759.641 387.145C759.641 388.845 759.249 390.379 758.466 391.745C757.682 393.095 756.607 394.154 755.241 394.92C753.891 395.67 752.399 396.045 750.766 396.045ZM750.766 393.57C751.916 393.57 752.941 393.312 753.841 392.795C754.741 392.262 755.441 391.512 755.941 390.545C756.457 389.562 756.716 388.429 756.716 387.145C756.716 385.862 756.457 384.737 755.941 383.77C755.441 382.804 754.741 382.062 753.841 381.545C752.941 381.029 751.916 380.77 750.766 380.77C749.616 380.77 748.591 381.029 747.691 381.545C746.791 382.062 746.082 382.804 745.566 383.77C745.066 384.737 744.816 385.862 744.816 387.145C744.816 388.429 745.066 389.562 745.566 390.545C746.082 391.512 746.791 392.262 747.691 392.795C748.591 393.312 749.616 393.57 750.766 393.57ZM765.295 384.095C765.712 383.395 766.262 382.854 766.945 382.47C767.645 382.07 768.47 381.87 769.42 381.87V384.82H768.695C767.579 384.82 766.729 385.104 766.145 385.67C765.579 386.237 765.295 387.22 765.295 388.62V395.87H762.445V382.095H765.295V384.095ZM771.09 388.92C771.09 387.537 771.373 386.312 771.94 385.245C772.523 384.179 773.307 383.354 774.29 382.77C775.29 382.17 776.398 381.87 777.615 381.87C778.515 381.87 779.398 382.07 780.265 382.47C781.148 382.854 781.848 383.37 782.365 384.02V377.37H785.24V395.87H782.365V393.795C781.898 394.462 781.248 395.012 780.415 395.445C779.598 395.879 778.657 396.095 777.59 396.095C776.39 396.095 775.29 395.795 774.29 395.195C773.307 394.579 772.523 393.729 771.94 392.645C771.373 391.545 771.09 390.304 771.09 388.92ZM782.365 388.97C782.365 388.02 782.165 387.195 781.765 386.495C781.382 385.795 780.873 385.262 780.24 384.895C779.607 384.529 778.923 384.345 778.19 384.345C777.457 384.345 776.773 384.529 776.14 384.895C775.507 385.245 774.99 385.77 774.59 386.47C774.207 387.154 774.015 387.97 774.015 388.92C774.015 389.87 774.207 390.704 774.59 391.42C774.99 392.137 775.507 392.687 776.14 393.07C776.79 393.437 777.473 393.62 778.19 393.62C778.923 393.62 779.607 393.437 780.24 393.07C780.873 392.704 781.382 392.17 781.765 391.47C782.165 390.754 782.365 389.92 782.365 388.97ZM801.608 388.645C801.608 389.162 801.575 389.629 801.508 390.045H790.983C791.067 391.145 791.475 392.029 792.208 392.695C792.942 393.362 793.842 393.695 794.908 393.695C796.442 393.695 797.525 393.054 798.158 391.77H801.233C800.817 393.037 800.058 394.079 798.958 394.895C797.875 395.695 796.525 396.095 794.908 396.095C793.592 396.095 792.408 395.804 791.358 395.22C790.325 394.62 789.508 393.787 788.908 392.72C788.325 391.637 788.033 390.387 788.033 388.97C788.033 387.554 788.317 386.312 788.883 385.245C789.467 384.162 790.275 383.329 791.308 382.745C792.358 382.162 793.558 381.87 794.908 381.87C796.208 381.87 797.367 382.154 798.383 382.72C799.4 383.287 800.192 384.087 800.758 385.12C801.325 386.137 801.608 387.312 801.608 388.645ZM798.633 387.745C798.617 386.695 798.242 385.854 797.508 385.22C796.775 384.587 795.867 384.27 794.783 384.27C793.8 384.27 792.958 384.587 792.258 385.22C791.558 385.837 791.142 386.679 791.008 387.745H798.633ZM807.263 384.095C807.68 383.395 808.23 382.854 808.913 382.47C809.613 382.07 810.438 381.87 811.388 381.87V384.82H810.663C809.546 384.82 808.696 385.104 808.113 385.67C807.546 386.237 807.263 387.22 807.263 388.62V395.87H804.413V382.095H807.263V384.095Z" fill="white"/>
<path d="M1090.45 383.495C1090 382.629 1089.38 381.979 1088.58 381.545C1087.78 381.095 1086.85 380.87 1085.8 380.87C1084.65 380.87 1083.63 381.129 1082.73 381.645C1081.83 382.162 1081.12 382.895 1080.6 383.845C1080.1 384.795 1079.85 385.895 1079.85 387.145C1079.85 388.395 1080.1 389.504 1080.6 390.47C1081.12 391.42 1081.83 392.154 1082.73 392.67C1083.63 393.187 1084.65 393.445 1085.8 393.445C1087.35 393.445 1088.61 393.012 1089.58 392.145C1090.54 391.279 1091.13 390.104 1091.35 388.62H1084.83V386.345H1094.4V388.57C1094.22 389.92 1093.73 391.162 1092.95 392.295C1092.18 393.429 1091.18 394.337 1089.93 395.02C1088.69 395.687 1087.32 396.02 1085.8 396.02C1084.17 396.02 1082.68 395.645 1081.33 394.895C1079.98 394.129 1078.9 393.07 1078.1 391.72C1077.32 390.37 1076.93 388.845 1076.93 387.145C1076.93 385.445 1077.32 383.92 1078.1 382.57C1078.9 381.22 1079.98 380.17 1081.33 379.42C1082.69 378.654 1084.18 378.27 1085.8 378.27C1087.65 378.27 1089.29 378.729 1090.73 379.645C1092.18 380.545 1093.23 381.829 1093.88 383.495H1090.45ZM1109.84 388.645C1109.84 389.162 1109.8 389.629 1109.74 390.045H1099.21C1099.29 391.145 1099.7 392.029 1100.44 392.695C1101.17 393.362 1102.07 393.695 1103.14 393.695C1104.67 393.695 1105.75 393.054 1106.39 391.77H1109.46C1109.04 393.037 1108.29 394.079 1107.19 394.895C1106.1 395.695 1104.75 396.095 1103.14 396.095C1101.82 396.095 1100.64 395.804 1099.59 395.22C1098.55 394.62 1097.74 393.787 1097.14 392.72C1096.55 391.637 1096.26 390.387 1096.26 388.97C1096.26 387.554 1096.54 386.312 1097.11 385.245C1097.69 384.162 1098.5 383.329 1099.54 382.745C1100.59 382.162 1101.79 381.87 1103.14 381.87C1104.44 381.87 1105.59 382.154 1106.61 382.72C1107.63 383.287 1108.42 384.087 1108.99 385.12C1109.55 386.137 1109.84 387.312 1109.84 388.645ZM1106.86 387.745C1106.84 386.695 1106.47 385.854 1105.74 385.22C1105 384.587 1104.09 384.27 1103.01 384.27C1102.03 384.27 1101.19 384.587 1100.49 385.22C1099.79 385.837 1099.37 386.679 1099.24 387.745H1106.86ZM1115.97 384.42V392.045C1115.97 392.562 1116.08 392.937 1116.32 393.17C1116.57 393.387 1116.98 393.495 1117.57 393.495H1119.32V395.87H1117.07C1115.78 395.87 1114.8 395.57 1114.12 394.97C1113.43 394.37 1113.09 393.395 1113.09 392.045V384.42H1111.47V382.095H1113.09V378.67H1115.97V382.095H1119.32V384.42H1115.97ZM1134.11 378.495C1135.96 378.495 1137.58 378.854 1138.96 379.57C1140.36 380.27 1141.44 381.287 1142.19 382.62C1142.95 383.937 1143.34 385.479 1143.34 387.245C1143.34 389.012 1142.95 390.545 1142.19 391.845C1141.44 393.145 1140.36 394.145 1138.96 394.845C1137.58 395.529 1135.96 395.87 1134.11 395.87H1128.44V378.495H1134.11ZM1134.11 393.545C1136.14 393.545 1137.7 392.995 1138.79 391.895C1139.87 390.795 1140.41 389.245 1140.41 387.245C1140.41 385.229 1139.87 383.654 1138.79 382.52C1137.7 381.387 1136.14 380.82 1134.11 380.82H1131.29V393.545H1134.11ZM1158.79 388.645C1158.79 389.162 1158.75 389.629 1158.69 390.045H1148.16C1148.24 391.145 1148.65 392.029 1149.39 392.695C1150.12 393.362 1151.02 393.695 1152.09 393.695C1153.62 393.695 1154.7 393.054 1155.34 391.77H1158.41C1157.99 393.037 1157.24 394.079 1156.14 394.895C1155.05 395.695 1153.7 396.095 1152.09 396.095C1150.77 396.095 1149.59 395.804 1148.54 395.22C1147.5 394.62 1146.69 393.787 1146.09 392.72C1145.5 391.637 1145.21 390.387 1145.21 388.97C1145.21 387.554 1145.49 386.312 1146.06 385.245C1146.64 384.162 1147.45 383.329 1148.49 382.745C1149.54 382.162 1150.74 381.87 1152.09 381.87C1153.39 381.87 1154.54 382.154 1155.56 382.72C1156.58 383.287 1157.37 384.087 1157.94 385.12C1158.5 386.137 1158.79 387.312 1158.79 388.645ZM1155.81 387.745C1155.79 386.695 1155.42 385.854 1154.69 385.22C1153.95 384.587 1153.04 384.27 1151.96 384.27C1150.98 384.27 1150.14 384.587 1149.44 385.22C1148.74 385.837 1148.32 386.679 1148.19 387.745H1155.81ZM1164.44 377.37V395.87H1161.59V377.37H1164.44ZM1169.63 380.27C1169.12 380.27 1168.68 380.095 1168.33 379.745C1167.98 379.395 1167.81 378.962 1167.81 378.445C1167.81 377.929 1167.98 377.495 1168.33 377.145C1168.68 376.795 1169.12 376.62 1169.63 376.62C1170.13 376.62 1170.56 376.795 1170.91 377.145C1171.26 377.495 1171.43 377.929 1171.43 378.445C1171.43 378.962 1171.26 379.395 1170.91 379.745C1170.56 380.095 1170.13 380.27 1169.63 380.27ZM1171.03 382.095V395.87H1168.18V382.095H1171.03ZM1180.1 393.32L1184 382.095H1187.02L1181.77 395.87H1178.37L1173.15 382.095H1176.2L1180.1 393.32ZM1201.8 388.645C1201.8 389.162 1201.77 389.629 1201.7 390.045H1191.18C1191.26 391.145 1191.67 392.029 1192.4 392.695C1193.14 393.362 1194.04 393.695 1195.1 393.695C1196.64 393.695 1197.72 393.054 1198.35 391.77H1201.43C1201.01 393.037 1200.25 394.079 1199.15 394.895C1198.07 395.695 1196.72 396.095 1195.1 396.095C1193.79 396.095 1192.6 395.804 1191.55 395.22C1190.52 394.62 1189.7 393.787 1189.1 392.72C1188.52 391.637 1188.23 390.387 1188.23 388.97C1188.23 387.554 1188.51 386.312 1189.08 385.245C1189.66 384.162 1190.47 383.329 1191.5 382.745C1192.55 382.162 1193.75 381.87 1195.1 381.87C1196.4 381.87 1197.56 382.154 1198.58 382.72C1199.6 383.287 1200.39 384.087 1200.95 385.12C1201.52 386.137 1201.8 387.312 1201.8 388.645ZM1198.83 387.745C1198.81 386.695 1198.44 385.854 1197.7 385.22C1196.97 384.587 1196.06 384.27 1194.98 384.27C1194 384.27 1193.15 384.587 1192.45 385.22C1191.75 385.837 1191.34 386.679 1191.2 387.745H1198.83ZM1207.46 384.095C1207.88 383.395 1208.43 382.854 1209.11 382.47C1209.81 382.07 1210.63 381.87 1211.58 381.87V384.82H1210.86C1209.74 384.82 1208.89 385.104 1208.31 385.67C1207.74 386.237 1207.46 387.22 1207.46 388.62V395.87H1204.61V382.095H1207.46V384.095ZM1226.83 388.645C1226.83 389.162 1226.79 389.629 1226.73 390.045H1216.2C1216.29 391.145 1216.69 392.029 1217.43 392.695C1218.16 393.362 1219.06 393.695 1220.13 393.695C1221.66 393.695 1222.74 393.054 1223.38 391.77H1226.45C1226.04 393.037 1225.28 394.079 1224.18 394.895C1223.09 395.695 1221.74 396.095 1220.13 396.095C1218.81 396.095 1217.63 395.804 1216.58 395.22C1215.54 394.62 1214.73 393.787 1214.13 392.72C1213.54 391.637 1213.25 390.387 1213.25 388.97C1213.25 387.554 1213.54 386.312 1214.1 385.245C1214.69 384.162 1215.49 383.329 1216.53 382.745C1217.58 382.162 1218.78 381.87 1220.13 381.87C1221.43 381.87 1222.59 382.154 1223.6 382.72C1224.62 383.287 1225.41 384.087 1225.98 385.12C1226.54 386.137 1226.83 387.312 1226.83 388.645ZM1223.85 387.745C1223.84 386.695 1223.46 385.854 1222.73 385.22C1221.99 384.587 1221.09 384.27 1220 384.27C1219.02 384.27 1218.18 384.587 1217.48 385.22C1216.78 385.837 1216.36 386.679 1216.23 387.745H1223.85ZM1228.68 388.92C1228.68 387.537 1228.97 386.312 1229.53 385.245C1230.12 384.179 1230.9 383.354 1231.88 382.77C1232.88 382.17 1233.99 381.87 1235.21 381.87C1236.11 381.87 1236.99 382.07 1237.86 382.47C1238.74 382.854 1239.44 383.37 1239.96 384.02V377.37H1242.83V395.87H1239.96V393.795C1239.49 394.462 1238.84 395.012 1238.01 395.445C1237.19 395.879 1236.25 396.095 1235.18 396.095C1233.98 396.095 1232.88 395.795 1231.88 395.195C1230.9 394.579 1230.12 393.729 1229.53 392.645C1228.97 391.545 1228.68 390.304 1228.68 388.92ZM1239.96 388.97C1239.96 388.02 1239.76 387.195 1239.36 386.495C1238.97 385.795 1238.47 385.262 1237.83 384.895C1237.2 384.529 1236.52 384.345 1235.78 384.345C1235.05 384.345 1234.37 384.529 1233.73 384.895C1233.1 385.245 1232.58 385.77 1232.18 386.47C1231.8 387.154 1231.61 387.97 1231.61 388.92C1231.61 389.87 1231.8 390.704 1232.18 391.42C1232.58 392.137 1233.1 392.687 1233.73 393.07C1234.38 393.437 1235.07 393.62 1235.78 393.62C1236.52 393.62 1237.2 393.437 1237.83 393.07C1238.47 392.704 1238.97 392.17 1239.36 391.47C1239.76 390.754 1239.96 389.92 1239.96 388.97Z" fill="white"/>
<g filter="url(#filter0_d_91_174)">
<ellipse cx="1161.5" cy="196.756" rx="135.5" ry="129.692" fill="white"/>
</g>
<g clip-path="url(#clip0_91_174)">
<path d="M1143.11 211.73H1096.33L1095.84 197.53C1095.81 196.915 1095.93 196.302 1096.17 195.734C1096.41 195.166 1096.77 194.656 1097.23 194.24C1097.69 193.824 1098.24 193.511 1098.83 193.323C1099.43 193.136 1100.06 193.077 1100.68 193.152L1127.89 196.443H1127.9C1131.93 196.454 1135.8 198.043 1138.65 200.864C1141.5 203.684 1143.1 207.505 1143.11 211.49V211.73Z" fill="#FA144B"/>
<path d="M1122.26 161.36H1089.64C1089.2 161.36 1088.77 161.444 1088.37 161.608C1087.97 161.772 1087.61 162.012 1087.3 162.315C1086.99 162.618 1086.75 162.977 1086.58 163.373C1086.42 163.769 1086.33 164.193 1086.33 164.622V196.834C1086.33 197.262 1086.42 197.686 1086.58 198.082C1086.75 198.478 1086.99 198.837 1087.3 199.14C1087.61 199.443 1087.97 199.684 1088.37 199.847C1088.77 200.011 1089.2 200.096 1089.64 200.096H1122.26C1122.69 200.096 1123.12 200.011 1123.52 199.847C1123.92 199.684 1124.29 199.443 1124.59 199.14C1124.9 198.837 1125.14 198.478 1125.31 198.082C1125.48 197.686 1125.56 197.262 1125.56 196.834V164.622C1125.56 164.193 1125.48 163.769 1125.31 163.373C1125.14 162.977 1124.9 162.618 1124.59 162.315C1124.29 162.012 1123.92 161.772 1123.52 161.608C1123.12 161.444 1122.69 161.36 1122.26 161.36Z" fill="#CCCCCC"/>
<path d="M1114.91 185.447L1099.51 188.408C1098.59 188.583 1097.65 188.393 1096.88 187.879C1096.1 187.365 1095.57 186.571 1095.39 185.669L1094.21 179.665C1094.03 178.763 1094.22 177.829 1094.74 177.067C1095.26 176.305 1096.07 175.778 1096.98 175.601L1112.39 172.639C1113.3 172.465 1114.25 172.655 1115.02 173.169C1115.79 173.682 1116.32 174.477 1116.5 175.379L1117.69 181.382C1117.86 182.284 1117.67 183.219 1117.15 183.981C1116.63 184.743 1115.82 185.27 1114.91 185.447Z" fill="#3F3D56"/>
<path d="M1111.83 178.354L1100.07 180.614C1099.86 180.656 1099.64 180.611 1099.46 180.49C1099.27 180.369 1099.15 180.182 1099.11 179.97C1099.06 179.757 1099.11 179.537 1099.23 179.358C1099.35 179.179 1099.54 179.055 1099.76 179.013L1111.51 176.753C1111.73 176.712 1111.95 176.757 1112.13 176.877C1112.31 176.998 1112.44 177.185 1112.48 177.398C1112.52 177.61 1112.48 177.83 1112.36 178.009C1112.23 178.189 1112.04 178.313 1111.83 178.354Z" fill="white"/>
<path d="M1109.54 181.701L1103.46 182.87C1103.25 182.912 1103.03 182.867 1102.85 182.746C1102.66 182.625 1102.54 182.438 1102.5 182.226C1102.45 182.013 1102.5 181.793 1102.62 181.614C1102.74 181.435 1102.93 181.311 1103.15 181.269L1109.23 180.1C1109.34 180.08 1109.44 180.08 1109.55 180.102C1109.66 180.123 1109.76 180.165 1109.85 180.225C1109.94 180.284 1110.02 180.361 1110.08 180.45C1110.14 180.54 1110.18 180.64 1110.2 180.745C1110.22 180.85 1110.22 180.958 1110.2 181.063C1110.17 181.168 1110.13 181.268 1110.07 181.357C1110.01 181.445 1109.93 181.522 1109.84 181.581C1109.75 181.64 1109.65 181.681 1109.54 181.701Z" fill="white"/>
<path d="M1125.56 164.622V168.903H1086.33V164.622C1086.33 164.193 1086.42 163.769 1086.58 163.373C1086.75 162.977 1086.99 162.618 1087.3 162.315C1087.61 162.012 1087.97 161.772 1088.37 161.608C1088.77 161.444 1089.2 161.36 1089.64 161.36H1122.26C1122.69 161.36 1123.12 161.444 1123.52 161.608C1123.92 161.772 1124.29 162.012 1124.59 162.315C1124.9 162.618 1125.14 162.977 1125.31 163.373C1125.48 163.769 1125.56 164.193 1125.56 164.622Z" fill="#B3B3B3"/>
<path d="M1203.9 170.244C1203.67 169.522 1203.29 168.858 1202.78 168.298C1202.26 167.739 1201.63 167.298 1200.92 167.006C1200.22 166.714 1199.46 166.578 1198.69 166.608C1197.93 166.639 1197.18 166.834 1196.5 167.181L1151.62 151.281L1149.64 162.352L1194.38 174.5C1195.04 175.589 1196.09 176.399 1197.32 176.777C1198.55 177.155 1199.88 177.073 1201.05 176.549C1202.23 176.024 1203.17 175.092 1203.69 173.93C1204.22 172.768 1204.29 171.457 1203.9 170.244Z" fill="#FFB8B8"/>
<path opacity="0.2" d="M1203.9 170.244C1203.67 169.522 1203.29 168.858 1202.78 168.298C1202.26 167.739 1201.63 167.298 1200.92 167.006C1200.22 166.714 1199.46 166.578 1198.69 166.608C1197.93 166.639 1197.18 166.834 1196.5 167.181L1151.62 151.281L1149.64 162.352L1194.38 174.5C1195.04 175.589 1196.09 176.399 1197.32 176.777C1198.55 177.155 1199.88 177.073 1201.05 176.549C1202.23 176.024 1203.17 175.092 1203.69 173.93C1204.22 172.768 1204.29 171.457 1203.9 170.244Z" fill="black"/>
<path d="M1159.58 153.299L1155.34 164.231C1155.22 164.542 1155.04 164.824 1154.79 165.057C1154.55 165.291 1154.27 165.47 1153.95 165.583C1153.63 165.696 1153.29 165.74 1152.96 165.712C1152.62 165.685 1152.29 165.586 1152 165.423L1141.7 159.698C1140.09 159.08 1138.8 157.857 1138.1 156.298C1137.4 154.739 1137.36 152.971 1137.98 151.381C1138.61 149.792 1139.84 148.51 1141.42 147.818C1142.99 147.126 1144.78 147.079 1146.4 147.688L1157.9 150.207C1158.23 150.28 1158.54 150.421 1158.81 150.622C1159.08 150.823 1159.3 151.079 1159.46 151.372C1159.62 151.666 1159.71 151.99 1159.73 152.322C1159.75 152.654 1159.7 152.987 1159.58 153.299Z" fill="#FA144B"/>
<path d="M1207.43 180.367L1191.35 187.585L1193.46 195.433C1197.54 210.59 1198.62 226.38 1196.65 241.94L1208.41 244.365L1218.16 219.824L1214.74 191.915L1207.43 180.367Z" fill="#FA144B"/>
<path d="M1238.99 216.697C1228.42 216.697 1219.81 224.281 1219.39 233.779H1258.58C1258.17 224.281 1249.56 216.697 1238.99 216.697Z" fill="#3F3D56"/>
<path d="M1230.76 218.333C1230.21 175.46 1205.48 179.404 1205.48 179.404C1205.48 179.404 1205.95 192.749 1206.17 193.164C1221.93 222.603 1195.92 257.116 1162.82 250.767C1162.19 250.647 1161.59 250.526 1161.02 250.403C1156.82 249.538 1153.12 247.128 1150.66 243.663C1148.2 240.198 1147.17 235.939 1147.78 231.751C1151.04 205.893 1134.82 206.351 1134.82 206.351H1111.1L1098.79 195.406C1098.35 195.02 1097.83 194.744 1097.26 194.604C1096.69 194.464 1096.1 194.463 1095.53 194.602C1094.97 194.741 1094.44 195.014 1094 195.4C1093.57 195.785 1093.24 196.27 1093.03 196.811L1091.45 201.058C1091.45 201.058 1068.06 203.464 1070.01 226.08H1077.24C1077.22 226.722 1077.25 227.365 1077.32 228.005L1131.29 227.571C1134.45 227.546 1137.25 230.077 1137.26 233.201C1137.26 233.962 1137.11 234.715 1136.81 235.416C1136.51 236.117 1136.07 236.752 1135.52 237.282C1134.97 237.812 1134.31 238.226 1133.6 238.5C1132.88 238.774 1132.11 238.903 1131.34 238.877L1122.64 238.591C1119.96 250.38 1126.54 258.32 1133.79 263.312C1140.61 267.944 1148.71 270.4 1156.99 270.349H1180.63C1211.33 270.349 1216.69 244.846 1216.69 244.846C1232.78 238.11 1230.76 218.333 1230.76 218.333Z" fill="#3F3D56"/>
<path d="M1237.53 284.304C1252.67 284.304 1264.94 272.186 1264.94 257.237C1264.94 242.288 1252.67 230.17 1237.53 230.17C1222.39 230.17 1210.11 242.288 1210.11 257.237C1210.11 272.186 1222.39 284.304 1237.53 284.304Z" fill="#3F3D56"/>
<path d="M1237.53 263.871C1241.24 263.871 1244.25 260.901 1244.25 257.237C1244.25 253.573 1241.24 250.603 1237.53 250.603C1233.82 250.603 1230.81 253.573 1230.81 257.237C1230.81 260.901 1233.82 263.871 1237.53 263.871Z" fill="white"/>
<path d="M1099.12 284.304C1116.55 284.304 1130.68 270.354 1130.68 253.147C1130.68 235.939 1116.55 221.99 1099.12 221.99C1081.7 221.99 1067.57 235.939 1067.57 253.147C1067.57 270.354 1081.7 284.304 1099.12 284.304Z" fill="#3F3D56"/>
<path d="M1099.12 260.783C1103.4 260.783 1106.86 257.364 1106.86 253.147C1106.86 248.929 1103.4 245.51 1099.12 245.51C1094.85 245.51 1091.39 248.929 1091.39 253.147C1091.39 257.364 1094.85 260.783 1099.12 260.783Z" fill="white"/>
<path d="M1191.4 189.717L1185.61 174.199C1185.31 173.39 1185.17 172.531 1185.21 171.67C1185.24 170.809 1185.45 169.963 1185.81 169.18C1186.18 168.398 1186.7 167.694 1187.34 167.11C1187.98 166.525 1188.73 166.071 1189.55 165.773L1206.14 159.743C1207.58 159.219 1209.11 158.981 1210.65 159.041C1212.18 159.101 1213.69 159.46 1215.09 160.095C1216.48 160.731 1217.73 161.632 1218.78 162.746C1219.82 163.86 1220.63 165.166 1221.16 166.589C1221.64 167.866 1221.88 169.218 1221.88 170.579C1221.87 172.309 1221.48 174.015 1220.72 175.574C1219.96 177.133 1218.86 178.505 1217.5 179.592C1216.51 180.372 1215.41 180.987 1214.22 181.415L1191.4 189.717Z" fill="#3F3D56"/>
<path d="M1221.64 170.579C1221.63 172.273 1221.25 173.945 1220.51 175.473C1219.76 177 1218.68 178.343 1217.35 179.404C1215.29 178.87 1213.39 177.901 1211.75 176.564C1210.12 175.227 1208.8 173.555 1207.88 171.664C1206.97 169.773 1206.48 167.708 1206.46 165.613C1206.44 163.517 1206.88 161.442 1207.75 159.531C1209.42 159.172 1211.15 159.188 1212.81 159.576C1214.48 159.964 1216.03 160.716 1217.37 161.776C1218.7 162.835 1219.77 164.176 1220.51 165.699C1221.25 167.223 1221.63 168.89 1221.64 170.579Z" fill="#FA144B"/>
<path d="M1074.15 229.208C1077.92 229.208 1080.97 225.545 1080.97 221.027C1080.97 216.509 1077.92 212.847 1074.15 212.847C1070.38 212.847 1067.33 216.509 1067.33 221.027C1067.33 225.545 1070.38 229.208 1074.15 229.208Z" fill="#FA144B"/>
<path d="M1164.33 249.983H1170.31L1173.15 234.683L1164.33 234.683L1164.33 249.983Z" fill="#FFB8B8"/>
<path d="M1162.81 248.057L1174.58 248.057H1174.58C1175.56 248.057 1176.54 248.248 1177.45 248.62C1178.36 248.992 1179.18 249.538 1179.88 250.225C1180.58 250.913 1181.13 251.729 1181.51 252.627C1181.88 253.526 1182.08 254.488 1182.08 255.461V255.701L1162.81 255.702L1162.81 248.057Z" fill="#2F2E41"/>
<path d="M1171.27 243.704C1171.2 243.704 1171.13 243.7 1171.06 243.694L1162.79 243.099C1162.46 243.069 1162.13 242.963 1161.85 242.789C1161.56 242.616 1161.32 242.38 1161.14 242.1C1160.96 241.819 1160.85 241.502 1160.81 241.173C1160.78 240.843 1160.82 240.509 1160.94 240.198L1172 215.65C1172.08 215.431 1172.11 215.199 1172.1 214.967C1172.08 214.735 1172.01 214.509 1171.91 214.304C1171.8 214.095 1171.64 213.912 1171.46 213.766C1171.27 213.62 1171.06 213.515 1170.83 213.457C1165.62 212.114 1152.27 208.538 1140.72 204.354C1135.77 202.561 1132.65 199.97 1131.45 196.654C1129.87 192.281 1132.21 188.293 1132.31 188.126L1132.39 187.995L1143.26 188.971L1155.05 189.961L1180.88 203.64C1183.05 204.796 1184.69 206.715 1185.49 209.014C1186.29 211.313 1186.18 213.825 1185.18 216.047L1173.27 242.42C1173.1 242.802 1172.82 243.127 1172.46 243.354C1172.11 243.582 1171.69 243.703 1171.27 243.704Z" fill="#2F2E41"/>
<path d="M1145.15 140.405C1151.76 140.405 1157.12 135.114 1157.12 128.586C1157.12 122.059 1151.76 116.768 1145.15 116.768C1138.54 116.768 1133.18 122.059 1133.18 128.586C1133.18 135.114 1138.54 140.405 1145.15 140.405Z" fill="#FFB8B8"/>
<path d="M1160.92 251.427H1166.9L1169.74 236.127L1160.92 236.127L1160.92 251.427Z" fill="#FFB8B8"/>
<path d="M1159.4 249.501L1171.17 249.5H1171.17C1172.15 249.5 1173.13 249.692 1174.04 250.064C1174.95 250.436 1175.77 250.981 1176.47 251.669C1177.16 252.356 1177.72 253.173 1178.09 254.071C1178.47 254.969 1178.66 255.932 1178.66 256.904V257.145L1159.4 257.145L1159.4 249.501Z" fill="#2F2E41"/>
<path d="M1167.86 245.147C1167.79 245.147 1167.72 245.144 1167.65 245.137L1159.38 244.543C1159.05 244.512 1158.72 244.406 1158.44 244.233C1158.15 244.06 1157.91 243.824 1157.73 243.543C1157.55 243.263 1157.44 242.946 1157.4 242.616C1157.37 242.286 1157.41 241.953 1157.52 241.642L1168.59 217.094C1168.67 216.875 1168.7 216.642 1168.68 216.411C1168.67 216.179 1168.6 215.953 1168.49 215.747C1168.39 215.539 1168.23 215.356 1168.05 215.21C1167.86 215.064 1167.65 214.958 1167.42 214.9C1162.21 213.557 1148.86 209.981 1137.31 205.797C1132.35 204.005 1129.24 201.414 1128.04 198.097C1126.46 193.725 1128.8 189.737 1128.9 189.57L1128.97 189.439L1139.85 190.415L1151.64 191.405L1177.47 205.084C1179.64 206.24 1181.28 208.159 1182.08 210.458C1182.87 212.757 1182.76 215.268 1181.77 217.491L1169.86 243.864C1169.69 244.246 1169.41 244.57 1169.05 244.798C1168.7 245.026 1168.28 245.147 1167.86 245.147Z" fill="#2F2E41"/>
<path d="M1148.84 147.107L1136.17 142.776C1136.17 142.776 1128.22 148.81 1132.04 163.779C1134.03 171.504 1133.45 179.658 1130.38 187.03C1130.01 187.943 1129.59 188.831 1129.11 189.692C1129.11 189.692 1143.24 206.534 1156.4 194.023L1151.28 169.723C1151.28 169.723 1159.32 153.603 1148.84 147.107Z" fill="#FA144B"/>
<path d="M1146.64 140.807C1144.93 138.289 1143.59 134.798 1145.46 132.403C1147.32 130.038 1150.97 130.386 1153.8 129.34C1157.75 127.883 1160.04 123.301 1159.33 119.199C1158.61 115.096 1155.28 111.695 1151.31 110.303C1147.33 108.911 1142.85 109.364 1138.96 110.967C1134.17 112.939 1130.06 116.755 1128.34 121.589C1126.61 126.423 1127.54 132.228 1131.11 135.943C1134.94 139.927 1140.96 140.988 1146.52 140.924" fill="#2F2E41"/>
<path d="M1135.5 119.33C1133.36 121.056 1130.08 120.289 1127.78 118.775C1125.47 117.261 1123.6 115.104 1121.11 113.917C1116.71 111.824 1111.4 113.215 1107.12 115.534C1102.84 117.852 1099.05 121.056 1094.53 122.875C1090.02 124.694 1084.25 124.784 1080.83 121.349C1079.99 123.758 1079.92 126.364 1080.63 128.813C1081.34 131.262 1082.81 133.434 1084.82 135.032C1086.83 136.63 1089.29 137.577 1091.86 137.744C1094.44 137.911 1097 137.289 1099.2 135.963C1104.16 132.986 1106.89 126.742 1112.44 125.098C1115.52 124.189 1118.82 124.921 1121.92 125.715C1125.03 126.508 1128.27 127.365 1131.4 126.69C1134.53 126.015 1137.47 123.234 1137.07 120.091L1135.5 119.33Z" fill="#2F2E41"/>
<path d="M1203.31 169.762C1202.99 169.074 1202.53 168.461 1201.95 167.969C1201.37 167.476 1200.68 167.116 1199.95 166.912C1199.21 166.708 1198.44 166.666 1197.68 166.789C1196.93 166.913 1196.21 167.198 1195.58 167.625L1149.05 157.315L1148.47 168.542L1194.39 175.146C1195.18 176.146 1196.32 176.822 1197.59 177.047C1198.86 177.272 1200.17 177.03 1201.27 176.366C1202.37 175.702 1203.18 174.664 1203.56 173.446C1203.93 172.229 1203.84 170.919 1203.31 169.762Z" fill="#FFB8B8"/>
<path d="M1157.21 158.346L1154.37 169.711C1154.29 170.035 1154.14 170.337 1153.93 170.598C1153.72 170.859 1153.45 171.072 1153.15 171.223C1152.85 171.374 1152.52 171.459 1152.18 171.472C1151.85 171.486 1151.51 171.427 1151.2 171.301L1140.26 166.875C1138.59 166.459 1137.15 165.403 1136.26 163.94C1135.37 162.478 1135.11 160.727 1135.53 159.073C1135.95 157.419 1137.01 155.997 1138.49 155.118C1139.97 154.239 1141.75 153.975 1143.42 154.385L1155.15 155.483C1155.49 155.515 1155.81 155.618 1156.1 155.784C1156.4 155.951 1156.65 156.178 1156.84 156.45C1157.04 156.721 1157.17 157.031 1157.23 157.359C1157.3 157.686 1157.29 158.023 1157.21 158.346Z" fill="#FA144B"/>
<path d="M1197.93 178.683C1199.82 178.683 1201.34 177.175 1201.34 175.314C1201.34 173.454 1199.82 171.946 1197.93 171.946C1196.05 171.946 1194.52 173.454 1194.52 175.314C1194.52 177.175 1196.05 178.683 1197.93 178.683Z" fill="#FA144B"/>
</g>
<g filter="url(#filter1_d_91_174)">
<ellipse cx="719.5" cy="196.756" rx="135.5" ry="129.692" fill="white"/>
</g>
<path d="M719 268.259C758.765 268.259 791 236.467 791 197.25C791 158.032 758.765 126.24 719 126.24C679.235 126.24 647 158.032 647 197.25C647 236.467 679.235 268.259 719 268.259Z" fill="#E4E4E4"/>
<path d="M719 256.424C752.137 256.424 779 229.931 779 197.249C779 164.568 752.137 138.075 719 138.075C685.863 138.075 659 164.568 659 197.249C659 229.931 685.863 256.424 719 256.424Z" fill="#FA144B"/>
<path d="M713.677 218.947C713.57 218.947 713.464 218.944 713.357 218.939C712.415 218.894 711.495 218.648 710.658 218.217C709.821 217.785 709.088 217.18 708.51 216.441L699.376 204.794C698.312 203.434 697.835 201.712 698.051 200.004C698.266 198.297 699.155 196.744 700.523 195.686L700.852 195.432C702.222 194.377 703.959 193.905 705.681 194.118C707.402 194.332 708.968 195.213 710.035 196.57C710.55 197.227 711.202 197.765 711.946 198.149C712.69 198.532 713.509 198.752 714.347 198.792C715.184 198.833 716.021 198.693 716.799 198.383C717.577 198.074 718.278 197.601 718.855 196.997L737.403 177.579C737.994 176.96 738.702 176.463 739.487 176.115C740.271 175.768 741.117 175.577 741.977 175.554C742.836 175.531 743.691 175.676 744.493 175.981C745.296 176.286 746.03 176.745 746.654 177.331L746.957 177.616C748.217 178.799 748.951 180.431 748.998 182.152C749.044 183.872 748.4 185.541 747.207 186.791L718.426 216.92C717.815 217.561 717.079 218.071 716.262 218.419C715.445 218.768 714.566 218.947 713.677 218.947Z" fill="white"/>
<g filter="url(#filter2_d_91_174)">
<ellipse cx="277.5" cy="196.756" rx="135.5" ry="129.692" fill="white"/>
</g>
<g clip-path="url(#clip1_91_174)">
<path d="M362.19 188.009C362.446 188.306 362.636 188.652 362.748 189.025C362.859 189.398 362.89 189.79 362.838 190.175C362.786 190.561 362.653 190.931 362.446 191.263C362.24 191.594 361.965 191.879 361.639 192.099L347.881 201.405L341.823 205.383C341.479 205.609 341.062 205.701 340.652 205.641C340.243 205.58 339.872 205.372 339.61 205.057C339.457 204.873 339.347 204.659 339.286 204.429C339.226 204.199 339.217 203.959 339.26 203.725C339.303 203.491 339.397 203.27 339.536 203.075C339.674 202.881 339.854 202.719 340.063 202.599L345.93 199.243L356.171 189.635L349.588 182.669L354.464 179.067L362.19 188.009Z" fill="#A0616A"/>
<path d="M329.838 275.625H326.472L324.474 248.243L333.008 248.002L329.838 275.625Z" fill="#A0616A"/>
<path d="M330.082 284.512C329.184 284.915 328.433 281.647 327.676 282.38C325.558 284.429 322.316 284.876 319.49 283.981L320.479 283.97C320.309 283.916 320.151 283.828 320.016 283.712C319.881 283.597 319.771 283.455 319.693 283.296C319.615 283.137 319.57 282.965 319.562 282.788C319.554 282.612 319.582 282.436 319.645 282.271C319.72 282.073 319.843 281.896 320.003 281.756C320.163 281.615 320.355 281.515 320.563 281.464L322.815 280.909L326.351 274.784L329.96 274.544C330.764 275.554 331.326 276.732 331.602 277.987C331.878 279.242 331.862 280.542 331.555 281.79C331.227 283.107 330.721 284.224 330.082 284.512Z" fill="#2F2E41"/>
<path d="M352.246 275.625H348.88L346.882 248.242L355.659 246.561L352.246 275.625Z" fill="#A0616A"/>
<path d="M352.49 284.512C351.592 284.915 350.841 281.647 350.084 282.379C347.966 284.429 344.724 284.875 341.898 283.981L342.887 283.97C342.717 283.916 342.559 283.828 342.424 283.712C342.289 283.597 342.179 283.455 342.101 283.296C342.023 283.137 341.978 282.964 341.97 282.788C341.962 282.612 341.99 282.436 342.053 282.271C342.128 282.073 342.251 281.896 342.411 281.756C342.571 281.615 342.763 281.515 342.971 281.464L345.223 280.909L348.758 274.784L352.612 274.304L352.709 274.46C353.454 275.643 353.934 276.969 354.118 278.349C354.301 279.729 354.184 281.131 353.773 282.463C353.453 283.474 353.017 284.275 352.49 284.512Z" fill="#2F2E41"/>
<path d="M356.062 179.686C352.967 180.11 350.824 181.78 349.952 185.11L344.263 174.763C343.925 174.106 343.84 173.351 344.022 172.636C344.204 171.921 344.641 171.295 345.254 170.873C345.904 170.424 346.704 170.237 347.489 170.35C348.274 170.463 348.986 170.868 349.478 171.482L356.062 179.686Z" fill="#FA144B"/>
<path d="M362.023 245.36C348.191 251.389 334.036 252.131 319.597 248.243C324.87 228.098 331.095 209.882 331.057 194.919L345.199 193.718L347.376 197.119C352.542 205.187 356.108 214.147 357.885 223.524L362.023 245.36Z" fill="#2F2E41"/>
<path d="M338.859 163.934C342.899 163.934 346.174 160.708 346.174 156.728C346.174 152.749 342.899 149.523 338.859 149.523C334.82 149.523 331.545 152.749 331.545 156.728C331.545 160.708 334.82 163.934 338.859 163.934Z" fill="#A0616A"/>
<path d="M346.906 169.459L337.884 169.939L336.421 162.013L343.736 160.812L346.906 169.459Z" fill="#A0616A"/>
<path d="M345.93 194.919L336.047 195.194L331.057 195.88C328.608 187.91 326.545 179.958 331.545 173.302L337.396 167.537L346.174 167.297L346.29 167.362C347.684 168.149 348.765 169.38 349.354 170.853C349.942 172.325 350.004 173.952 349.529 175.463C347.351 182.437 345.952 189.021 345.93 194.919Z" fill="#FA144B"/>
<path d="M330.813 217.257L330.2 225.511C330.167 225.954 329.973 226.369 329.654 226.682C329.335 226.994 328.912 227.182 328.463 227.212C328.204 227.229 327.945 227.192 327.701 227.105C327.457 227.018 327.235 226.882 327.047 226.705C326.86 226.528 326.712 226.315 326.613 226.079C326.515 225.843 326.467 225.589 326.473 225.334L326.668 217.257L332.764 194.439L333.008 180.508L339.835 180.267L339.347 196.361L330.813 217.257Z" fill="#A0616A"/>
<path d="M340.566 181.468C337.672 180.309 334.968 180.697 332.52 183.15L332.855 171.387C332.898 170.652 333.208 169.956 333.728 169.427C334.249 168.898 334.946 168.572 335.691 168.508C336.482 168.44 337.269 168.673 337.891 169.159C338.514 169.644 338.924 170.346 339.038 171.119L340.566 181.468Z" fill="#FA144B"/>
<path d="M354.342 188.794H331.91C337.143 175.144 338.831 162.445 331.91 151.564C332.029 148.296 336.284 145.463 339.588 145.776C343.491 146.146 348.735 148.971 349.466 152.765L354.342 188.794Z" fill="#2F2E41"/>
<path d="M282.852 145.176H281.829V117.564C281.829 115.466 281.41 113.388 280.594 111.449C279.779 109.51 278.584 107.748 277.078 106.264C275.571 104.78 273.783 103.603 271.815 102.8C269.846 101.997 267.737 101.583 265.606 101.583H206.223C204.092 101.583 201.983 101.997 200.015 102.8C198.046 103.603 196.258 104.78 194.751 106.264C193.245 107.748 192.05 109.51 191.235 111.449C190.42 113.388 190 115.466 190 117.564V269.045C190 271.143 190.42 273.221 191.235 275.16C192.05 277.099 193.245 278.861 194.751 280.345C196.258 281.829 198.046 283.006 200.015 283.809C201.983 284.612 204.092 285.026 206.223 285.026H265.606C267.737 285.026 269.846 284.612 271.815 283.809C273.783 283.006 275.571 281.829 277.078 280.345C278.584 278.861 279.779 277.099 280.594 275.16C281.41 273.221 281.829 271.143 281.829 269.045V164.831H282.852V145.176Z" fill="#3F3D56"/>
<path d="M266.261 105.741H258.51C258.866 106.602 259.002 107.536 258.906 108.461C258.809 109.386 258.484 110.274 257.957 111.045C257.431 111.817 256.72 112.449 255.887 112.887C255.054 113.324 254.124 113.553 253.18 113.553H219.16C218.216 113.553 217.287 113.324 216.454 112.887C215.621 112.449 214.91 111.817 214.383 111.045C213.857 110.274 213.531 109.386 213.435 108.461C213.339 107.536 213.475 106.602 213.831 105.741H206.591C205 105.741 203.425 106.05 201.955 106.65C200.485 107.249 199.15 108.128 198.025 109.237C196.9 110.345 196.007 111.661 195.399 113.108C194.79 114.556 194.476 116.108 194.476 117.676V268.934C194.476 270.501 194.79 272.053 195.399 273.501C196.007 274.949 196.9 276.264 198.025 277.372C199.15 278.481 200.485 279.36 201.955 279.959C203.425 280.559 205 280.868 206.591 280.868H266.261C267.852 280.868 269.427 280.559 270.897 279.959C272.367 279.36 273.703 278.481 274.828 277.372C275.953 276.264 276.845 274.949 277.454 273.501C278.063 272.053 278.376 270.501 278.376 268.934V117.676C278.376 114.51 277.1 111.475 274.828 109.237C272.556 106.999 269.474 105.741 266.261 105.741Z" fill="white"/>
<path d="M267.898 129.369H204.954V182.553H267.898V129.369Z" fill="#E6E6E6"/>
<path d="M223.633 193.643C226.176 193.643 228.238 191.612 228.238 189.106C228.238 186.601 226.176 184.569 223.633 184.569C221.089 184.569 219.027 186.601 219.027 189.106C219.027 191.612 221.089 193.643 223.633 193.643Z" fill="#FA144B"/>
<path d="M225.936 188.728H224.017V186.838H223.249V188.728H221.33V189.485H223.249V191.375H224.017V189.485H225.936V188.728Z" fill="white"/>
<path d="M247.94 193.643C250.484 193.643 252.546 191.612 252.546 189.106C252.546 186.601 250.484 184.569 247.94 184.569C245.397 184.569 243.335 186.601 243.335 189.106C243.335 191.612 245.397 193.643 247.94 193.643Z" fill="#FA144B"/>
<path d="M250.243 189.485V188.728H245.638V189.485H250.243Z" fill="white"/>
<path d="M238.774 136.002H233.8C233.625 136.002 233.457 136.07 233.333 136.192C233.21 136.314 233.14 136.479 233.14 136.651V138.802C233.14 138.974 233.21 139.14 233.333 139.261C233.457 139.383 233.625 139.452 233.8 139.452H234.624V142.674H237.949V139.452H238.774C238.949 139.452 239.116 139.383 239.24 139.261C239.364 139.14 239.433 138.974 239.433 138.802V136.651C239.433 136.479 239.364 136.314 239.24 136.192C239.116 136.07 238.949 136.002 238.774 136.002Z" fill="#FA144B"/>
<path d="M243.756 155.686C240.71 151.294 239.152 146.066 239.307 140.75C239.31 140.627 239.269 140.507 239.193 140.41C239.116 140.314 239.008 140.246 238.886 140.219V139.29H233.633V140.206H233.56C233.489 140.206 233.419 140.22 233.354 140.247C233.289 140.274 233.229 140.313 233.179 140.362C233.129 140.412 233.09 140.47 233.063 140.535C233.036 140.599 233.022 140.668 233.022 140.738C233.022 140.751 233.022 140.764 233.023 140.777C233.437 146.46 232.04 151.557 228.831 156.067C228.646 156.326 228.552 156.637 228.562 156.954L229.136 174.458C229.15 174.848 229.316 175.218 229.601 175.491C229.885 175.763 230.265 175.917 230.661 175.92H242.544C242.945 175.917 243.329 175.759 243.614 175.481C243.899 175.203 244.062 174.827 244.07 174.432L244.291 157.437C244.298 156.813 244.111 156.202 243.756 155.686Z" fill="#3F3D56"/>
<path opacity="0.2" d="M237.737 136.702C237.737 137.074 237.587 137.431 237.32 137.693C237.053 137.956 236.691 138.104 236.314 138.104C235.937 138.104 235.575 137.956 235.308 137.693C235.041 137.431 234.891 137.074 234.891 136.702" fill="black"/>
<path d="M241.875 161.5H240.436C240.299 160.622 239.847 159.821 239.162 159.243C238.478 158.664 237.605 158.346 236.704 158.346C235.802 158.346 234.93 158.664 234.245 159.243C233.56 159.821 233.109 160.622 232.971 161.5H231.532C231.379 161.5 231.228 161.532 231.089 161.595C230.95 161.658 230.826 161.75 230.726 161.865C230.627 161.979 230.553 162.114 230.511 162.259C230.469 162.404 230.459 162.556 230.483 162.705L232.046 172.713H241.02L242.919 162.739C242.947 162.588 242.942 162.432 242.903 162.283C242.864 162.135 242.792 161.996 242.692 161.878C242.592 161.76 242.467 161.664 242.326 161.599C242.185 161.534 242.031 161.5 241.875 161.5Z" fill="#FA144B"/>
<path d="M267.898 204.23H204.954V257.414H267.898V204.23Z" fill="#E6E6E6"/>
<path d="M223.633 268.505C226.176 268.505 228.238 266.473 228.238 263.968C228.238 261.462 226.176 259.431 223.633 259.431C221.089 259.431 219.027 261.462 219.027 263.968C219.027 266.473 221.089 268.505 223.633 268.505Z" fill="#FA144B"/>
<path d="M225.936 263.59H224.017V261.699H223.249V263.59H221.33V264.346H223.249V266.236H224.017V264.346H225.936V263.59Z" fill="white"/>
<path d="M247.94 268.505C250.484 268.505 252.546 266.473 252.546 263.968C252.546 261.462 250.484 259.431 247.94 259.431C245.397 259.431 243.335 261.462 243.335 263.968C243.335 266.473 245.397 268.505 247.94 268.505Z" fill="#FA144B"/>
<path d="M250.243 264.346V263.589H245.638V264.346H250.243Z" fill="white"/>
<path d="M248.817 242.013L248.852 242.013C250.037 242.023 251.198 241.68 252.182 241.031C253.167 240.381 253.93 239.454 254.372 238.37C255.764 234.902 256.09 231.107 255.309 227.458C254.528 223.809 252.675 220.467 249.98 217.847C247.285 215.228 243.868 213.448 240.153 212.728C236.438 212.008 232.591 212.38 229.089 213.798C225.588 215.217 222.587 217.618 220.461 220.704C218.335 223.79 217.177 227.424 217.132 231.153C217.087 234.882 218.157 238.542 220.207 241.677C222.258 244.812 225.2 247.283 228.666 248.783C229.743 249.253 230.939 249.391 232.098 249.179C233.256 248.968 234.323 248.416 235.157 247.597C236.947 245.824 239.076 244.418 241.421 243.46C243.765 242.501 246.279 242.01 248.817 242.013Z" fill="white"/>
<path d="M238.904 236.258C242.424 236.258 245.277 233.447 245.277 229.98C245.277 226.513 242.424 223.703 238.904 223.703C235.385 223.703 232.532 226.513 232.532 229.98C232.532 233.447 235.385 236.258 238.904 236.258Z" fill="#F9A825"/>
</g>
<defs>
<filter id="filter0_d_91_174" x="976" y="21.0648" width="371" height="359.383" filterUnits="userSpaceOnUse" color-interpolation-filters="sRGB">
<feFlood flood-opacity="0" result="BackgroundImageFix"/>
<feColorMatrix in="SourceAlpha" type="matrix" values="0 0 0 0 0 0 0 0 0 0 0 0 0 0 0 0 0 0 127 0" result="hardAlpha"/>
<feOffset dy="4"/>
<feGaussianBlur stdDeviation="25"/>
<feComposite in2="hardAlpha" operator="out"/>
<feColorMatrix type="matrix" values="0 0 0 0 0 0 0 0 0 0 0 0 0 0 0 0 0 0 0.25 0"/>
<feBlend mode="normal" in2="BackgroundImageFix" result="effect1_dropShadow_91_174"/>
<feBlend mode="normal" in="SourceGraphic" in2="effect1_dropShadow_91_174" result="shape"/>
</filter>
<filter id="filter1_d_91_174" x="534" y="21.0648" width="371" height="359.383" filterUnits="userSpaceOnUse" color-interpolation-filters="sRGB">
<feFlood flood-opacity="0" result="BackgroundImageFix"/>
<feColorMatrix in="SourceAlpha" type="matrix" values="0 0 0 0 0 0 0 0 0 0 0 0 0 0 0 0 0 0 127 0" result="hardAlpha"/>
<feOffset dy="4"/>
<feGaussianBlur stdDeviation="25"/>
<feComposite in2="hardAlpha" operator="out"/>
<feColorMatrix type="matrix" values="0 0 0 0 0 0 0 0 0 0 0 0 0 0 0 0 0 0 0.25 0"/>
<feBlend mode="normal" in2="BackgroundImageFix" result="effect1_dropShadow_91_174"/>
<feBlend mode="normal" in="SourceGraphic" in2="effect1_dropShadow_91_174" result="shape"/>
</filter>
<filter id="filter2_d_91_174" x="92" y="21.0648" width="371" height="359.383" filterUnits="userSpaceOnUse" color-interpolation-filters="sRGB">
<feFlood flood-opacity="0" result="BackgroundImageFix"/>
<feColorMatrix in="SourceAlpha" type="matrix" values="0 0 0 0 0 0 0 0 0 0 0 0 0 0 0 0 0 0 127 0" result="hardAlpha"/>
<feOffset dy="4"/>
<feGaussianBlur stdDeviation="25"/>
<feComposite in2="hardAlpha" operator="out"/>
<feColorMatrix type="matrix" values="0 0 0 0 0 0 0 0 0 0 0 0 0 0 0 0 0 0 0.25 0"/>
<feBlend mode="normal" in2="BackgroundImageFix" result="effect1_dropShadow_91_174"/>
<feBlend mode="normal" in="SourceGraphic" in2="effect1_dropShadow_91_174" result="shape"/>
</filter>
<linearGradient id="paint0_linear_91_174" x1="435.425" y1="207.112" x2="452.787" y2="207.112" gradientUnits="userSpaceOnUse">
<stop stop-color="#FF0000"/>
<stop offset="1" stop-color="#FF6B00"/>
</linearGradient>
<linearGradient id="paint1_linear_91_174" x1="469.425" y1="207.112" x2="486.787" y2="207.112" gradientUnits="userSpaceOnUse">
<stop stop-color="#FF0000"/>
<stop offset="1" stop-color="#FF6B00"/>
</linearGradient>
<linearGradient id="paint2_linear_91_174" x1="508.425" y1="207.112" x2="525.787" y2="207.112" gradientUnits="userSpaceOnUse">
<stop stop-color="#FF0000"/>
<stop offset="1" stop-color="#FF6B00"/>
</linearGradient>
<linearGradient id="paint3_linear_91_174" x1="544.425" y1="207.112" x2="561.787" y2="207.112" gradientUnits="userSpaceOnUse">
<stop stop-color="#FF0000"/>
<stop offset="1" stop-color="#FF6B00"/>
</linearGradient>
<clipPath id="clip0_91_174">
<rect width="404" height="175.552" fill="white" transform="translate(945 109.474)"/>
</clipPath>
<clipPath id="clip1_91_174">
<rect width="197" height="183.442" fill="white" transform="translate(190 101.583)"/>
</clipPath>
</defs>
</svg>
