<svg width="326" height="302" viewBox="0 0 326 302" fill="none" xmlns="http://www.w3.org/2000/svg">
<path d="M103.982 148.66H98.5697V151.815H103.982V148.66Z" fill="#3F3D56"/>
<path d="M114.807 148.66H109.395V151.815H114.807V148.66Z" fill="#3F3D56"/>
<path d="M125.632 148.66H120.219V151.815H125.632V148.66Z" fill="#3F3D56"/>
<path d="M136.457 148.66H131.044V151.815H136.457V148.66Z" fill="#3F3D56"/>
<path d="M147.281 148.66H141.869V151.815H147.281V148.66Z" fill="#3F3D56"/>
<path d="M158.106 148.66H152.694V151.815H158.106V148.66Z" fill="#3F3D56"/>
<path d="M168.931 148.66H163.519V151.815H168.931V148.66Z" fill="#3F3D56"/>
<path d="M179.756 148.66H174.344V151.815H179.756V148.66Z" fill="#3F3D56"/>
<path d="M190.581 148.66H185.168V151.815H190.581V148.66Z" fill="#3F3D56"/>
<path d="M201.406 148.66H195.993V151.815H201.406V148.66Z" fill="#3F3D56"/>
<path d="M212.23 148.66H206.818V151.815H212.23V148.66Z" fill="#3F3D56"/>
<path d="M224.634 150.688C224.634 167.902 217.791 184.411 205.611 196.583C193.431 208.755 176.911 215.593 159.685 215.593C142.459 215.593 125.939 208.755 113.759 196.583C101.579 184.411 94.736 167.902 94.736 150.688H224.634Z" fill="#3F3D56"/>
<path d="M221.495 151.103L180.18 28.0351C188.266 25.3183 196.808 24.221 205.319 24.806C213.829 25.391 222.141 27.6469 229.779 31.4447C237.416 35.2424 244.229 40.5075 249.829 46.9387C255.429 53.37 259.705 60.8413 262.413 68.9254C262.85 70.228 263.247 71.5396 263.599 72.8513C267.851 88.7994 265.865 105.767 258.043 120.304C250.222 134.84 237.153 145.853 221.495 151.103Z" fill="#3F3D56"/>
<path d="M223.055 160.829C227.539 160.829 231.174 157.197 231.174 152.716C231.174 148.235 227.539 144.603 223.055 144.603C218.571 144.603 214.937 148.235 214.937 152.716C214.937 157.197 218.571 160.829 223.055 160.829Z" fill="#3F3D56"/>
<path d="M140.516 167.59C139.918 167.59 139.344 167.828 138.922 168.25C138.499 168.673 138.261 169.246 138.261 169.844C138.261 170.442 138.499 171.015 138.922 171.438C139.344 171.86 139.918 172.098 140.516 172.098H179.305C179.903 172.098 180.477 171.86 180.9 171.438C181.323 171.015 181.56 170.442 181.56 169.844C181.56 169.246 181.323 168.673 180.9 168.25C180.477 167.828 179.903 167.59 179.305 167.59H140.516Z" fill="#FA144B"/>
<path d="M213.584 268.103L205.507 268.401L176.411 205.869L183.773 202.449L213.584 268.103Z" fill="#3F3D56"/>
<path d="M105.786 268.103L113.862 268.401L142.959 205.869L135.597 202.449L105.786 268.103Z" fill="#3F3D56"/>
<path d="M193.287 232.045H126.534V236.552H193.287V232.045Z" fill="#3F3D56"/>
<path d="M181.831 25.7375C181.514 25.7377 181.201 25.8121 180.918 25.9548C180.635 26.0976 180.389 26.3046 180.2 26.5594C180.012 26.8142 179.885 27.1096 179.832 27.4219C179.778 27.7343 179.798 28.0549 179.89 28.3581L181.602 33.9625C181.759 34.4766 182.114 34.9072 182.589 35.1596C183.064 35.4121 183.62 35.4658 184.135 35.3089C184.65 35.152 185.081 34.7974 185.334 34.323C185.587 33.8485 185.641 33.2931 185.485 32.7787L183.774 27.1743C183.646 26.7587 183.389 26.395 183.039 26.1364C182.689 25.8778 182.266 25.738 181.831 25.7375Z" fill="#FA144B"/>
<path d="M92.0297 151.815C91.4914 151.815 90.9751 152.028 90.5945 152.409C90.2138 152.789 90 153.305 90 153.843C90 154.381 90.2138 154.897 90.5945 155.277C90.9751 155.658 91.4914 155.871 92.0297 155.871H97.8931C98.4314 155.871 98.9477 155.658 99.3283 155.277C99.7089 154.897 99.9228 154.381 99.9228 153.843C99.9228 153.305 99.7089 152.789 99.3283 152.409C98.9477 152.028 98.4314 151.815 97.8931 151.815H92.0297Z" fill="#FA144B"/>
<path d="M140.516 136.941H116.16C116.007 136.941 115.858 136.945 115.709 136.959C114.118 137.072 112.628 137.784 111.541 138.95C110.453 140.116 109.847 141.65 109.845 143.245C109.844 144.839 110.446 146.375 111.531 147.543C112.617 148.712 114.104 149.426 115.695 149.543C115.849 149.557 116.002 149.561 116.16 149.561H140.516C142.191 149.561 143.797 148.896 144.981 147.713C146.165 146.53 146.83 144.924 146.83 143.251C146.83 141.577 146.165 139.972 144.981 138.789C143.797 137.605 142.191 136.941 140.516 136.941Z" fill="#FF6584" fill-opacity="0.8"/>
<path opacity="0.2" d="M113.706 149.061C117.856 148.529 121.121 143.296 121.121 136.941H120.219C120.219 143.156 116.981 148.209 113.003 148.209V148.714L113.706 149.061Z" fill="black"/>
<path opacity="0.2" d="M122.474 149.11V148.209C126.454 148.209 129.691 143.154 129.691 136.941H130.593C130.593 143.651 126.951 149.11 122.474 149.11Z" fill="black"/>
<path opacity="0.2" d="M131.946 149.11V148.209C135.925 148.209 139.163 143.154 139.163 136.941H140.065C140.065 143.651 136.423 149.11 131.946 149.11Z" fill="black"/>
<path d="M184.717 136.941H160.362C160.208 136.941 160.059 136.945 159.91 136.959C158.319 137.072 156.83 137.784 155.742 138.95C154.654 140.116 154.049 141.65 154.047 143.245C154.045 144.839 154.648 146.375 155.733 147.543C156.818 148.712 158.306 149.426 159.897 149.543C160.05 149.557 160.204 149.561 160.362 149.561H184.717C186.392 149.561 187.998 148.896 189.182 147.713C190.367 146.53 191.032 144.924 191.032 143.251C191.032 141.577 190.367 139.972 189.182 138.789C187.998 137.605 186.392 136.941 184.717 136.941Z" fill="#FF6584" fill-opacity="0.8"/>
<path opacity="0.2" d="M157.908 149.061C162.057 148.529 165.323 143.296 165.323 136.941H164.421C164.421 143.156 161.182 148.209 157.204 148.209V148.714L157.908 149.061Z" fill="black"/>
<path opacity="0.2" d="M166.676 149.11V148.209C170.655 148.209 173.893 143.154 173.893 136.941H174.795C174.795 143.651 171.153 149.11 166.676 149.11Z" fill="black"/>
<path opacity="0.2" d="M176.148 149.11V148.209C180.127 148.209 183.364 143.154 183.364 136.941H184.266C184.266 143.651 180.624 149.11 176.148 149.11Z" fill="black"/>
<path d="M138.734 76.3429C135.542 74.6196 131.595 76.499 130.005 79.5494C128.07 83.2598 129.674 87.7204 131.93 90.8917C134.274 94.1872 137.456 96.9074 139.021 100.716C140.518 104.3 140.696 108.298 139.522 112C138.348 115.703 135.9 118.87 132.611 120.939C131.143 121.867 132.499 124.208 133.976 123.274C137.202 121.26 139.754 118.331 141.307 114.861C142.859 111.391 143.342 107.538 142.693 103.793C142.363 101.85 141.735 99.9707 140.831 98.2205C139.85 96.4341 138.668 94.7655 137.309 93.2468C134.961 90.47 132.006 87.4089 131.859 83.5456C131.832 83.0445 131.867 82.5419 131.963 82.0493C132.033 81.7052 132.138 81.369 132.275 81.0457C132.603 80.3515 133.09 79.7443 133.697 79.273C134.259 78.8249 134.924 78.5239 135.632 78.3973C136.226 78.3093 136.832 78.4074 137.368 78.678C138.9 79.5053 140.268 77.1713 138.734 76.3429Z" fill="#E6E6E6"/>
<path d="M179.454 92.7015C178.095 92.265 176.643 92.2051 175.252 92.528C173.862 92.851 172.585 93.5448 171.558 94.5356C171.027 95.0812 170.634 95.7453 170.41 96.473C170.187 97.2007 170.141 97.971 170.275 98.7202C170.533 100.359 171.568 101.815 172.692 102.988C174.89 105.283 177.966 106.767 179.809 109.402C180.626 110.525 181.139 111.84 181.297 113.219C181.392 114.458 181.165 115.701 180.637 116.827C179.262 119.619 176.533 121.519 173.655 122.741C172.982 123.027 172.834 124.018 173.169 124.591C173.357 124.894 173.653 125.113 173.998 125.203C174.342 125.294 174.709 125.248 175.021 125.077C180.317 122.826 185.218 117.786 183.757 111.594C182.989 108.337 180.633 106.038 178.097 104.04C176.837 103.117 175.647 102.102 174.537 101.004C173.66 100.073 172.749 98.8018 172.91 97.5402C172.974 97.1015 173.189 96.6987 173.518 96.4006C173.916 96.0366 174.368 95.7363 174.858 95.5102C175.459 95.2225 176.111 95.0565 176.776 95.022C177.442 94.9875 178.108 95.0852 178.735 95.3093C179.081 95.4012 179.449 95.3538 179.76 95.1772C180.072 95.0005 180.301 94.7088 180.399 94.3649C180.487 94.0193 180.438 93.6531 180.262 93.343C180.086 93.0329 179.796 92.803 179.454 92.7015Z" fill="#E6E6E6"/>
<path d="M158.853 54.232C158.046 53.5437 157.029 53.1519 155.968 53.1221C154.963 53.1409 153.985 53.4567 153.159 54.0297C151.293 55.3844 149.973 57.3609 149.437 59.6027C148.07 64.8372 149.853 70.4791 152.332 75.0892C153.585 77.4197 155.044 79.6318 156.305 81.9577C157.521 84.1822 158.455 86.5496 159.084 89.0051C160.368 94.04 160.483 99.3016 159.419 104.388C158.336 109.45 156.058 114.462 152.182 117.955C151.928 118.209 151.786 118.553 151.786 118.911C151.786 119.27 151.928 119.614 152.182 119.868C152.436 120.121 152.78 120.264 153.139 120.264C153.498 120.264 153.842 120.121 154.096 119.868C157.536 116.767 159.836 112.515 161.225 108.142C162.758 103.203 163.206 97.9924 162.539 92.8647C162.238 90.3113 161.656 87.7987 160.804 85.3726C159.881 82.9285 158.729 80.5774 157.362 78.3506C154.818 74.053 152.111 69.7063 151.743 64.5891C151.562 62.0727 151.877 59.4496 153.434 57.426C153.349 57.5368 153.503 57.3455 153.503 57.3447C153.598 57.2317 153.696 57.1217 153.797 57.0147C153.99 56.8074 154.198 56.6141 154.419 56.4362C154.372 56.4734 154.252 56.5534 154.47 56.4023C154.579 56.3272 154.689 56.2551 154.803 56.1883C154.895 56.134 154.991 56.0857 155.085 56.0355C155.142 56.0069 155.199 55.9798 155.256 55.9545C155.125 56.0112 155.132 56.0117 155.279 55.9561C155.384 55.923 155.909 55.8098 155.618 55.8465C155.715 55.8349 155.812 55.8286 155.91 55.8275C155.951 55.8268 156.316 55.8455 156.138 55.826C155.93 55.8032 156.303 55.863 156.306 55.8637C156.422 55.8922 156.537 55.9285 156.649 55.9724C156.368 55.86 157.111 56.2776 156.939 56.1443C157.198 56.3875 157.541 56.5228 157.896 56.5228C158.252 56.5228 158.594 56.3875 158.853 56.1443C159.32 55.6778 159.433 54.6828 158.853 54.232Z" fill="#E6E6E6"/>
</svg>
