<svg width="136" height="64" viewBox="0 0 136 64" fill="none" xmlns="http://www.w3.org/2000/svg">
<path d="M65.0578 10H80.0578V15H70.5578V24.25H78.1078V29.25H70.5578V40H80.0578V45H65.0578V10ZM87.4719 10H94.9219L100.622 45H95.1219L94.1219 38.05V38.15H87.8719L86.8719 45H81.7719L87.4719 10ZM93.4719 33.4L91.0219 16.1H90.9219L88.5219 33.4H93.4719ZM105.295 15H99.5453V10H116.545V15H110.795V45H105.295V15ZM126.358 45.5C123.692 45.5 121.675 44.75 120.308 43.25C118.942 41.7167 118.258 39.5333 118.258 36.7V34.7H123.458V37.1C123.458 39.3667 124.408 40.5 126.308 40.5C127.242 40.5 127.942 40.2333 128.408 39.7C128.908 39.1333 129.158 38.2333 129.158 37C129.158 35.5333 128.825 34.25 128.158 33.15C127.492 32.0167 126.258 30.6667 124.458 29.1C122.192 27.1 120.608 25.3 119.708 23.7C118.808 22.0667 118.358 20.2333 118.358 18.2C118.358 15.4333 119.058 13.3 120.458 11.8C121.858 10.2667 123.892 9.5 126.558 9.5C129.192 9.5 131.175 10.2667 132.508 11.8C133.875 13.3 134.558 15.4667 134.558 18.3V19.75H129.358V17.95C129.358 16.75 129.125 15.8833 128.658 15.35C128.192 14.7833 127.508 14.5 126.608 14.5C124.775 14.5 123.858 15.6167 123.858 17.85C123.858 19.1167 124.192 20.3 124.858 21.4C125.558 22.5 126.808 23.8333 128.608 25.4C130.908 27.4 132.492 29.2167 133.358 30.85C134.225 32.4833 134.658 34.4 134.658 36.6C134.658 39.4667 133.942 41.6667 132.508 43.2C131.108 44.7333 129.058 45.5 126.358 45.5Z" fill="white"/>
<path d="M28.92 28.92C29.08 28.94 29.21 29.02 29.31 29.16C29.41 29.28 29.44 29.42 29.4 29.58C29.38 29.72 29.3 29.84 29.16 29.94C26.06 32.16 23.23 34.26 20.67 36.24C20.93 37.06 20.96 37.96 20.76 38.94C20.44 40.56 19.85 42.14 18.99 43.68C18.15 45.22 17.18 46.57 16.08 47.73C15 48.89 13.85 49.92 12.63 50.82C11.43 51.72 10.28 52.41 9.18 52.89C8.1 53.37 7.15 53.64 6.33 53.7C6.21 53.72 6.1 53.73 6 53.73C5.04 53.73 4.43 53.37 4.17 52.65C3.71 51.39 4.78 49.32 7.38 46.44C9.98 43.56 13.94 40.04 19.26 35.88C18.66 34.78 17.48 33.77 15.72 32.85C13.96 31.91 11.18 30.67 7.38 29.13C6.34 28.71 5.54 28.38 4.98 28.14C3.54 27.54 2.54 26.73 1.98 25.71C1.42 24.69 1.35 23.52 1.77 22.2C2.29 20.52 3.55 18.7 5.55 16.74C7.55 14.76 9.73 13.03 12.09 11.55C14.47 10.07 16.86 8.89 19.26 8.01C21.68 7.13 23.55 6.84 24.87 7.14C25.17 7.2 25.44 7.3 25.68 7.44C25.94 7.56 26.2 7.75 26.46 8.01C26.72 8.27 26.9 8.63 27 9.09C27.12 9.53 27.14 10.06 27.06 10.68C27.04 10.78 27 10.87 26.94 10.95C26.88 11.03 26.8 11.09 26.7 11.13C26.6 11.17 26.5 11.18 26.4 11.16C26.24 11.14 26.11 11.07 26.01 10.95C25.91 10.81 25.87 10.66 25.89 10.5C26.01 9.76 25.94 9.23 25.68 8.91C25.44 8.59 25.09 8.38 24.63 8.28C23.89 8.1 22.89 8.16 21.63 8.46C20.37 8.76 18.96 9.27 17.4 9.99C15.86 10.69 14.29 11.56 12.69 12.6C10.11 14.22 7.94 15.92 6.18 17.7C4.42 19.48 3.32 21.09 2.88 22.53C2.22 24.59 3.07 26.11 5.43 27.09C5.97 27.31 6.77 27.63 7.83 28.05C9.15 28.59 10.13 29 10.77 29.28C11.41 29.54 12.25 29.9 13.29 30.36C14.33 30.8 15.13 31.18 15.69 31.5C16.25 31.82 16.86 32.19 17.52 32.61C18.18 33.03 18.72 33.45 19.14 33.87C19.56 34.27 19.91 34.7 20.19 35.16C22.71 33.2 25.48 31.15 28.5 29.01C28.64 28.91 28.78 28.88 28.92 28.92ZM19.65 38.7C19.77 38.1 19.78 37.54 19.68 37.02C15.42 40.36 12.04 43.3 9.54 45.84C8.08 47.34 6.96 48.67 6.18 49.83C5.4 51.01 5.09 51.82 5.25 52.26C5.33 52.5 5.66 52.6 6.24 52.56C6.92 52.5 7.75 52.25 8.73 51.81C9.73 51.37 10.79 50.73 11.91 49.89C13.05 49.05 14.13 48.09 15.15 47.01C16.19 45.95 17.12 44.68 17.94 43.2C18.76 41.74 19.33 40.24 19.65 38.7ZM40.2305 29.19C40.3905 29.13 40.5405 29.14 40.6805 29.22C40.8205 29.28 40.9205 29.39 40.9805 29.55C41.0405 29.69 41.0305 29.83 40.9505 29.97C40.4105 31.13 39.8005 32.32 39.1205 33.54C38.4405 34.76 37.6905 35.99 36.8705 37.23C36.0705 38.49 35.2705 39.51 34.4705 40.29C33.6705 41.09 32.9905 41.49 32.4305 41.49C32.2905 41.49 32.1605 41.46 32.0405 41.4C31.2205 41.08 30.9605 39.84 31.2605 37.68C31.5405 35.66 32.2805 32.8 33.4805 29.1C33.4605 29.1 33.4405 29.11 33.4205 29.13C33.4205 29.13 33.4105 29.13 33.3905 29.13C32.9505 29.43 32.5805 29.66 32.2805 29.82C32.0005 29.98 31.6105 30.16 31.1105 30.36C30.6305 30.56 30.1705 30.65 29.7305 30.63C29.2905 30.61 28.8805 30.47 28.5005 30.21C27.7405 29.67 27.3505 28.92 27.3305 27.96C27.3105 27 27.6705 25.95 28.4105 24.81C28.8705 24.09 29.4205 23.46 30.0605 22.92C30.7205 22.38 31.2805 22.26 31.7405 22.56C32.0205 22.72 32.1805 22.98 32.2205 23.34C32.2805 23.7 32.1105 24.4 31.7105 25.44C31.3105 26.46 30.6405 27.8 29.7005 29.46C30.3205 29.54 31.3405 29.11 32.7605 28.17C33.0205 27.99 33.2105 27.87 33.3305 27.81C33.4705 27.73 33.6205 27.65 33.7805 27.57C33.9605 27.49 34.1105 27.46 34.2305 27.48C34.3505 27.5 34.4705 27.55 34.5905 27.63C34.8905 27.87 34.9405 28.29 34.7405 28.89C32.7405 35.09 31.9505 38.85 32.3705 40.17C32.4105 40.25 32.4405 40.31 32.4605 40.35C32.6205 40.37 32.8605 40.24 33.1805 39.96C33.5205 39.68 33.9305 39.24 34.4105 38.64C34.9105 38.04 35.4405 37.32 36.0005 36.48C36.5805 35.64 37.2105 34.61 37.8905 33.39C38.5905 32.17 39.2605 30.87 39.9005 29.49C39.9805 29.33 40.0905 29.23 40.2305 29.19ZM28.5905 27.15C28.4105 27.85 28.4505 28.41 28.7105 28.83C30.1705 26.29 30.9505 24.57 31.0505 23.67C30.8105 23.81 30.5305 24.04 30.2105 24.36C29.9105 24.68 29.5905 25.1 29.2505 25.62C28.9305 26.12 28.7105 26.63 28.5905 27.15ZM55.8171 29.16C55.9771 29.14 56.1171 29.18 56.2371 29.28C56.3571 29.38 56.4171 29.51 56.4171 29.67C56.4371 29.83 56.3971 29.97 56.2971 30.09C53.7571 33.07 51.7471 34.28 50.2671 33.72C49.2071 33.32 48.6371 32.05 48.5571 29.91C48.2771 30.43 47.8371 31.3 47.2371 32.52C46.8971 33.26 46.6671 33.73 46.5471 33.93C46.0271 34.93 45.4671 35.35 44.8671 35.19C44.0471 34.99 43.6471 33.84 43.6671 31.74C43.6671 31.34 43.6771 30.87 43.6971 30.33C42.3771 32.21 41.0271 34.47 39.6471 37.11C39.4071 37.57 39.1471 37.8 38.8671 37.8C38.7671 37.8 38.6771 37.77 38.5971 37.71C38.4971 37.67 38.4271 37.63 38.3871 37.59C38.3271 37.55 38.2771 37.44 38.2371 37.26C38.1771 37.08 38.1671 36.85 38.2071 36.57C38.2271 36.29 38.2871 35.88 38.3871 35.34C38.4871 34.8 38.6371 34.15 38.8371 33.39C39.4771 30.83 40.2471 28.54 41.1471 26.52C41.2071 26.36 41.3071 26.25 41.4471 26.19C41.6071 26.13 41.7571 26.14 41.8971 26.22C42.0571 26.28 42.1571 26.39 42.1971 26.55C42.2571 26.69 42.2571 26.83 42.1971 26.97C41.1971 29.23 40.3771 31.74 39.7371 34.5C40.9371 32.38 42.1771 30.43 43.4571 28.65C43.7371 28.25 44.0471 28.11 44.3871 28.23C44.6271 28.31 44.7671 28.48 44.8071 28.74C44.8471 28.98 44.8571 29.47 44.8371 30.21C44.8171 30.83 44.8071 31.34 44.8071 31.74C44.8071 32.8 44.9171 33.55 45.1371 33.99C45.2571 33.87 45.3971 33.67 45.5571 33.39C45.6571 33.19 45.8771 32.74 46.2171 32.04C47.0371 30.32 47.6271 29.2 47.9871 28.68C48.3471 28.14 48.7171 27.91 49.0971 27.99C49.5171 28.09 49.7271 28.53 49.7271 29.31C49.7071 31.27 50.0271 32.38 50.6871 32.64C51.0871 32.78 51.6971 32.6 52.5171 32.1C53.3371 31.58 54.3071 30.66 55.4271 29.34C55.5271 29.22 55.6571 29.16 55.8171 29.16Z" fill="#FA144B"/>
</svg>
